<svg width="21" height="16" viewBox="0 0 21 16" fill="none" xmlns="http://www.w3.org/2000/svg">
<g clip-path="url(#clip0_1_8848)">
<path d="M3.65625 2C3.65625 1.44687 4.10313 1 4.65625 1H5.65625C6.20937 1 6.65625 1.44687 6.65625 2V7V9V14C6.65625 14.5531 6.20937 15 5.65625 15H4.65625C4.10313 15 3.65625 14.5531 3.65625 14V12H2.65625C2.10312 12 1.65625 11.5531 1.65625 11V9C1.10312 9 0.65625 8.55312 0.65625 8C0.65625 7.44688 1.10312 7 1.65625 7V5C1.65625 4.44688 2.10312 4 2.65625 4H3.65625V2ZM17.6562 2V4H18.6562C19.2094 4 19.6562 4.44688 19.6562 5V7C20.2094 7 20.6562 7.44688 20.6562 8C20.6562 8.55312 20.2094 9 19.6562 9V11C19.6562 11.5531 19.2094 12 18.6562 12H17.6562V14C17.6562 14.5531 17.2094 15 16.6562 15H15.6562C15.1031 15 14.6562 14.5531 14.6562 14V9V7V2C14.6562 1.44687 15.1031 1 15.6562 1H16.6562C17.2094 1 17.6562 1.44687 17.6562 2ZM13.6562 7V9H7.65625V7H13.6562Z" fill="#9B59B6"/>
</g>
<defs>
<clipPath id="clip0_1_8848">
<path d="M0.65625 0H20.6562V16H0.65625V0Z" fill="white"/>
</clipPath>
</defs>
</svg>
