<svg width="21" height="16" viewBox="0 0 21 16" fill="none" xmlns="http://www.w3.org/2000/svg">
<g clip-path="url(#clip0_1_8845)">
<path d="M6.82847 11C10.4191 11 13.3285 8.5375 13.3285 5.5C13.3285 2.4625 10.4191 0 6.82847 0C3.23784 0 0.328467 2.4625 0.328467 5.5C0.328467 6.70625 0.787842 7.82187 1.56597 8.73125C1.45659 9.025 1.29409 9.28438 1.12222 9.50313C0.972217 9.69688 0.819092 9.84688 0.706592 9.95C0.650342 10 0.603467 10.0406 0.572217 10.0656C0.556592 10.0781 0.544092 10.0875 0.537842 10.0906L0.531592 10.0969C0.359717 10.225 0.284717 10.45 0.353467 10.6531C0.422217 10.8562 0.612842 11 0.828467 11C1.50972 11 2.19722 10.825 2.76909 10.6094C3.05659 10.5 3.32534 10.3781 3.55972 10.2531C4.51909 10.7281 5.63472 11 6.82847 11ZM14.3285 5.5C14.3285 9.00937 11.2316 11.6531 7.56284 11.9688C8.32222 14.2937 10.841 16 13.8285 16C15.0222 16 16.1378 15.7281 17.1003 15.2531C17.3347 15.3781 17.6003 15.5 17.8878 15.6094C18.4597 15.825 19.1472 16 19.8285 16C20.0441 16 20.2378 15.8594 20.3035 15.6531C20.3691 15.4469 20.2972 15.2219 20.1222 15.0938L20.116 15.0875C20.1097 15.0812 20.0972 15.075 20.0816 15.0625C20.0503 15.0375 20.0035 15 19.9472 14.9469C19.8347 14.8438 19.6816 14.6938 19.5316 14.5C19.3597 14.2812 19.1972 14.0187 19.0878 13.7281C19.866 12.8219 20.3253 11.7063 20.3253 10.4969C20.3253 7.59687 17.6722 5.21875 14.3066 5.0125C14.3191 5.17188 14.3253 5.33437 14.3253 5.49687L14.3285 5.5Z" fill="#2ECC71"/>
</g>
<defs>
<clipPath id="clip0_1_8845">
<path d="M0.328125 0H20.3281V16H0.328125V0Z" fill="white"/>
</clipPath>
</defs>
</svg>
