<svg width="19" height="16" viewBox="0 0 19 16" fill="none" xmlns="http://www.w3.org/2000/svg">
<g clip-path="url(#clip0_1_8839)">
<path d="M0.65625 4C0.65625 2.89688 1.55313 2 2.65625 2H16.6562C17.7594 2 18.6562 2.89688 18.6562 4V6C18.6562 6.275 18.425 6.49063 18.1656 6.58125C17.5781 6.78438 17.1562 7.34375 17.1562 8C17.1562 8.65625 17.5781 9.21562 18.1656 9.41875C18.425 9.50937 18.6562 9.725 18.6562 10V12C18.6562 13.1031 17.7594 14 16.6562 14H2.65625C1.55313 14 0.65625 13.1031 0.65625 12V10C0.65625 9.725 0.8875 9.50937 1.14687 9.41875C1.73438 9.21562 2.15625 8.65625 2.15625 8C2.15625 7.34375 1.73438 6.78438 1.14687 6.58125C0.8875 6.49063 0.65625 6.275 0.65625 6V4Z" fill="#F1C40F"/>
</g>
<defs>
<clipPath id="clip0_1_8839">
<path d="M0.65625 0H18.6562V16H0.65625V0Z" fill="white"/>
</clipPath>
</defs>
</svg>
