<svg width="17" height="16" viewBox="0 0 17 16" fill="none" xmlns="http://www.w3.org/2000/svg">
<g clip-path="url(#clip0_1_8842)">
<path d="M8.9842 1C9.42795 1 9.83732 1.23437 10.0623 1.61875L16.8123 13.1187C17.0404 13.5062 17.0404 13.9844 16.8186 14.3719C16.5967 14.7594 16.1811 15 15.7342 15H2.2342C1.78732 15 1.3717 14.7594 1.14982 14.3719C0.927948 13.9844 0.931073 13.5031 1.15607 13.1187L7.90607 1.61875C8.13107 1.23437 8.54045 1 8.9842 1ZM8.9842 5C8.56857 5 8.2342 5.33437 8.2342 5.75V9.25C8.2342 9.66562 8.56857 10 8.9842 10C9.39982 10 9.7342 9.66562 9.7342 9.25V5.75C9.7342 5.33437 9.39982 5 8.9842 5ZM9.9842 12C9.9842 11.7348 9.87884 11.4804 9.69131 11.2929C9.50377 11.1054 9.24941 11 8.9842 11C8.71898 11 8.46463 11.1054 8.27709 11.2929C8.08956 11.4804 7.9842 11.7348 7.9842 12C7.9842 12.2652 8.08956 12.5196 8.27709 12.7071C8.46463 12.8946 8.71898 13 8.9842 13C9.24941 13 9.50377 12.8946 9.69131 12.7071C9.87884 12.5196 9.9842 12.2652 9.9842 12Z" fill="#E74C3C"/>
</g>
<defs>
<clipPath id="clip0_1_8842">
<path d="M0.984375 0H16.9844V16H0.984375V0Z" fill="white"/>
</clipPath>
</defs>
</svg>
