<svg width="17" height="16" viewBox="0 0 17 16" fill="none" xmlns="http://www.w3.org/2000/svg">
<g clip-path="url(#clip0_1_7548)">
<path d="M15.3469 0.67832C14.6625 -0.0060547 13.5562 -0.0060547 12.8719 0.67832L11.9312 1.61582L14.9906 4.6752L15.9312 3.73457C16.6156 3.0502 16.6156 1.94395 15.9312 1.25957L15.3469 0.67832ZM5.99687 7.55332C5.80625 7.74395 5.65937 7.97832 5.575 8.2377L4.65 11.0127C4.55938 11.2814 4.63125 11.5783 4.83125 11.7814C5.03125 11.9846 5.32812 12.0533 5.6 11.9627L8.375 11.0377C8.63125 10.9533 8.86562 10.8064 9.05937 10.6158L14.2875 5.38457L11.225 2.32207L5.99687 7.55332ZM3.60938 2.0002C1.95312 2.0002 0.609375 3.34395 0.609375 5.0002V13.0002C0.609375 14.6564 1.95312 16.0002 3.60938 16.0002H11.6094C13.2656 16.0002 14.6094 14.6564 14.6094 13.0002V10.0002C14.6094 9.44707 14.1625 9.0002 13.6094 9.0002C13.0562 9.0002 12.6094 9.44707 12.6094 10.0002V13.0002C12.6094 13.5533 12.1625 14.0002 11.6094 14.0002H3.60938C3.05625 14.0002 2.60938 13.5533 2.60938 13.0002V5.0002C2.60938 4.44707 3.05625 4.0002 3.60938 4.0002H6.60938C7.1625 4.0002 7.60938 3.55332 7.60938 3.0002C7.60938 2.44707 7.1625 2.0002 6.60938 2.0002H3.60938Z" fill="white"/>
</g>
<defs>
<clipPath id="clip0_1_7548">
<path d="M0.609375 0H16.6094V16H0.609375V0Z" fill="white"/>
</clipPath>
</defs>
</svg>
