<svg width="17" height="16" viewBox="0 0 17 16" fill="none" xmlns="http://www.w3.org/2000/svg">
<g clip-path="url(#clip0_1_7609)">
<path d="M9.15625 0H13.0344C13.4313 0 13.8125 0.159375 14.0938 0.440625L16.2156 2.5625C16.4969 2.84375 16.6562 3.225 16.6562 3.62188V10.5C16.6562 11.3281 15.9844 12 15.1562 12H9.15625C8.32812 12 7.65625 11.3281 7.65625 10.5V1.5C7.65625 0.671875 8.32812 0 9.15625 0ZM2.15625 4H6.65625V6H2.65625V14H8.65625V13H10.6562V14.5C10.6562 15.3281 9.98438 16 9.15625 16H2.15625C1.32812 16 0.65625 15.3281 0.65625 14.5V5.5C0.65625 4.67188 1.32812 4 2.15625 4Z" fill="#9CA3AF"/>
</g>
<defs>
<clipPath id="clip0_1_7609">
<path d="M0.65625 0H16.6562V16H0.65625V0Z" fill="white"/>
</clipPath>
</defs>
</svg>
