<svg width="10" height="13" viewBox="0 0 10 13" fill="none" xmlns="http://www.w3.org/2000/svg">
<g clip-path="url(#clip0_1_7875)">
<path d="M8.10762 4.02949C8.40059 3.73652 8.40059 3.26074 8.10762 2.96777C7.81465 2.6748 7.33887 2.6748 7.0459 2.96777L4.57793 5.43809L2.10762 2.97012C1.81465 2.67715 1.33887 2.67715 1.0459 2.97012C0.75293 3.26309 0.75293 3.73887 1.0459 4.03184L3.51621 6.4998L1.04824 8.97012C0.755273 9.26309 0.755273 9.73887 1.04824 10.0318C1.34121 10.3248 1.81699 10.3248 2.10996 10.0318L4.57793 7.56152L7.04824 10.0295C7.34121 10.3225 7.81699 10.3225 8.10996 10.0295C8.40293 9.73652 8.40293 9.26074 8.10996 8.96777L5.63965 6.4998L8.10762 4.02949Z" fill="#9CA3AF"/>
</g>
<defs>
<clipPath id="clip0_1_7875">
<path d="M0.078125 0.5H9.07812V12.5H0.078125V0.5Z" fill="white"/>
</clipPath>
</defs>
</svg>
