<svg width="17" height="16" viewBox="0 0 17 16" fill="none" xmlns="http://www.w3.org/2000/svg">
<g clip-path="url(#clip0_1_7612)">
<path d="M15.3938 0.67832C14.7094 -0.0060547 13.6031 -0.0060547 12.9187 0.67832L11.9781 1.61582L15.0375 4.6752L15.9781 3.73457C16.6625 3.0502 16.6625 1.94395 15.9781 1.25957L15.3938 0.67832ZM6.04375 7.55332C5.85312 7.74395 5.70625 7.97832 5.62187 8.2377L4.69688 11.0127C4.60625 11.2814 4.67813 11.5783 4.87813 11.7814C5.07812 11.9846 5.375 12.0533 5.64687 11.9627L8.42188 11.0377C8.67813 10.9533 8.9125 10.8064 9.10625 10.6158L14.3344 5.38457L11.2719 2.32207L6.04375 7.55332ZM3.65625 2.0002C2 2.0002 0.65625 3.34395 0.65625 5.0002V13.0002C0.65625 14.6564 2 16.0002 3.65625 16.0002H11.6562C13.3125 16.0002 14.6562 14.6564 14.6562 13.0002V10.0002C14.6562 9.44707 14.2094 9.0002 13.6562 9.0002C13.1031 9.0002 12.6562 9.44707 12.6562 10.0002V13.0002C12.6562 13.5533 12.2094 14.0002 11.6562 14.0002H3.65625C3.10313 14.0002 2.65625 13.5533 2.65625 13.0002V5.0002C2.65625 4.44707 3.10313 4.0002 3.65625 4.0002H6.65625C7.20937 4.0002 7.65625 3.55332 7.65625 3.0002C7.65625 2.44707 7.20937 2.0002 6.65625 2.0002H3.65625Z" fill="#9CA3AF"/>
</g>
<defs>
<clipPath id="clip0_1_7612">
<path d="M0.65625 0H16.6562V16H0.65625V0Z" fill="white"/>
</clipPath>
</defs>
</svg>
