<svg width="17" height="16" viewBox="0 0 17 16" fill="none" xmlns="http://www.w3.org/2000/svg">
<g clip-path="url(#clip0_1_7545)">
<path d="M9.3125 1C9.3125 0.446875 8.86563 0 8.3125 0C7.75938 0 7.3125 0.446875 7.3125 1V8.58438L5.01875 6.29063C4.62813 5.9 3.99375 5.9 3.60313 6.29063C3.2125 6.68125 3.2125 7.31563 3.60313 7.70625L7.60313 11.7063C7.99375 12.0969 8.62813 12.0969 9.01875 11.7063L13.0188 7.70625C13.4094 7.31563 13.4094 6.68125 13.0188 6.29063C12.6281 5.9 11.9937 5.9 11.6031 6.29063L9.3125 8.58438V1ZM2.3125 11C1.20938 11 0.3125 11.8969 0.3125 13V14C0.3125 15.1031 1.20938 16 2.3125 16H14.3125C15.4156 16 16.3125 15.1031 16.3125 14V13C16.3125 11.8969 15.4156 11 14.3125 11H11.1406L9.725 12.4156C8.94375 13.1969 7.67812 13.1969 6.89687 12.4156L5.48438 11H2.3125ZM13.8125 12.75C14.0114 12.75 14.2022 12.829 14.3428 12.9697C14.4835 13.1103 14.5625 13.3011 14.5625 13.5C14.5625 13.6989 14.4835 13.8897 14.3428 14.0303C14.2022 14.171 14.0114 14.25 13.8125 14.25C13.6136 14.25 13.4228 14.171 13.2822 14.0303C13.1415 13.8897 13.0625 13.6989 13.0625 13.5C13.0625 13.3011 13.1415 13.1103 13.2822 12.9697C13.4228 12.829 13.6136 12.75 13.8125 12.75Z" fill="black"/>
</g>
<defs>
<clipPath id="clip0_1_7545">
<path d="M0.3125 0H16.3125V16H0.3125V0Z" fill="white"/>
</clipPath>
</defs>
</svg>
