<svg width="15" height="13" viewBox="0 0 15 13" fill="none" xmlns="http://www.w3.org/2000/svg">
<g clip-path="url(#clip0_1_7857)">
<path d="M7.57803 1.25C5.68428 1.25 4.16787 2.1125 3.06396 3.13906C1.96709 4.15625 1.2335 5.375 0.886621 6.21172C0.809277 6.39687 0.809277 6.60312 0.886621 6.78828C1.2335 7.625 1.96709 8.84375 3.06396 9.86094C4.16787 10.8875 5.68428 11.75 7.57803 11.75C9.47178 11.75 10.9882 10.8875 12.0921 9.86094C13.189 8.84141 13.9226 7.625 14.2718 6.78828C14.3491 6.60312 14.3491 6.39687 14.2718 6.21172C13.9226 5.375 13.189 4.15625 12.0921 3.13906C10.9882 2.1125 9.47178 1.25 7.57803 1.25ZM4.20303 6.5C4.20303 5.60489 4.55861 4.74645 5.19154 4.11351C5.82448 3.48058 6.68292 3.125 7.57803 3.125C8.47313 3.125 9.33158 3.48058 9.96451 4.11351C10.5974 4.74645 10.953 5.60489 10.953 6.5C10.953 7.39511 10.5974 8.25355 9.96451 8.88649C9.33158 9.51942 8.47313 9.875 7.57803 9.875C6.68292 9.875 5.82448 9.51942 5.19154 8.88649C4.55861 8.25355 4.20303 7.39511 4.20303 6.5ZM7.57803 5C7.57803 5.82734 6.90537 6.5 6.07803 6.5C5.91162 6.5 5.75225 6.47187 5.60225 6.42266C5.47334 6.38047 5.32334 6.46016 5.32803 6.59609C5.33506 6.75781 5.3585 6.91953 5.40303 7.08125C5.72412 8.28125 6.95928 8.99375 8.15928 8.67266C9.35928 8.35156 10.0718 7.11641 9.75068 5.91641C9.49053 4.94375 8.63037 4.28984 7.67412 4.25C7.53818 4.24531 7.4585 4.39297 7.50068 4.52422C7.5499 4.67422 7.57803 4.83359 7.57803 5Z" fill="white"/>
</g>
<defs>
<clipPath id="clip0_1_7857">
<path d="M0.828125 0.5H14.3281V12.5H0.828125V0.5Z" fill="white"/>
</clipPath>
</defs>
</svg>
