<svg width="18" height="16" viewBox="0 0 18 16" fill="none" xmlns="http://www.w3.org/2000/svg">
<g clip-path="url(#clip0_1_1175)">
<path d="M10 1.00002C10 0.690647 9.85938 0.400022 9.61563 0.212522C9.37188 0.0250223 9.05625 -0.0437277 8.75625 0.0312723L3.13438 1.43752C2.46875 1.60315 2 2.20315 2 2.89065V14H1C0.446875 14 0 14.4469 0 15C0 15.5531 0.446875 16 1 16H3H9H10V15V1.00002ZM8 8.00002C8 8.55315 7.66563 9.00002 7.25 9.00002C6.83437 9.00002 6.5 8.55315 6.5 8.00002C6.5 7.4469 6.83437 7.00002 7.25 7.00002C7.66563 7.00002 8 7.4469 8 8.00002ZM11 4.00002H14V15C14 15.5531 14.4469 16 15 16H17C17.5531 16 18 15.5531 18 15C18 14.4469 17.5531 14 17 14H16V4.00002C16 2.8969 15.1031 2.00002 14 2.00002H11V4.00002Z" fill="#2ECC71"/>
</g>
<defs>
<clipPath id="clip0_1_1175">
<path d="M0 0H18V16H0V0Z" fill="white"/>
</clipPath>
</defs>
</svg>
