<svg width="17" height="16" viewBox="0 0 17 16" fill="none" xmlns="http://www.w3.org/2000/svg">
<g clip-path="url(#clip0_1_802)">
<path d="M9.70312 1C9.70312 0.446875 9.25625 0 8.70312 0C8.15 0 7.70312 0.446875 7.70312 1V8.58438L5.40938 6.29063C5.01875 5.9 4.38438 5.9 3.99375 6.29063C3.60313 6.68125 3.60313 7.31563 3.99375 7.70625L7.99375 11.7063C8.38438 12.0969 9.01875 12.0969 9.40938 11.7063L13.4094 7.70625C13.8 7.31563 13.8 6.68125 13.4094 6.29063C13.0188 5.9 12.3844 5.9 11.9937 6.29063L9.70312 8.58438V1ZM2.70312 11C1.6 11 0.703125 11.8969 0.703125 13V14C0.703125 15.1031 1.6 16 2.70312 16H14.7031C15.8062 16 16.7031 15.1031 16.7031 14V13C16.7031 11.8969 15.8062 11 14.7031 11H11.5312L10.1156 12.4156C9.33438 13.1969 8.06875 13.1969 7.2875 12.4156L5.875 11H2.70312ZM14.2031 12.75C14.402 12.75 14.5928 12.829 14.7335 12.9697C14.8741 13.1103 14.9531 13.3011 14.9531 13.5C14.9531 13.6989 14.8741 13.8897 14.7335 14.0303C14.5928 14.171 14.402 14.25 14.2031 14.25C14.0042 14.25 13.8134 14.171 13.6728 14.0303C13.5321 13.8897 13.4531 13.6989 13.4531 13.5C13.4531 13.3011 13.5321 13.1103 13.6728 12.9697C13.8134 12.829 14.0042 12.75 14.2031 12.75Z" fill="#404040"/>
</g>
<defs>
<clipPath id="clip0_1_802">
<path d="M0.703125 0H16.7031V16H0.703125V0Z" fill="white"/>
</clipPath>
</defs>
</svg>
