<svg width="20" height="16" viewBox="0 0 20 16" fill="none" xmlns="http://www.w3.org/2000/svg">
<path d="M20 16H0V0H20V16Z" stroke="#E5E7EB"/>
<path d="M1 1C1.55313 1 2 1.44687 2 2V10H9V5C9 4.44688 9.44687 4 10 4H17C18.6562 4 20 5.34375 20 7V14C20 14.5531 19.5531 15 19 15C18.4469 15 18 14.5531 18 14V13H11H10H2V14C2 14.5531 1.55313 15 1 15C0.446875 15 0 14.5531 0 14V2C0 1.44687 0.446875 1 1 1ZM5.5 4C6.16304 4 6.79893 4.26339 7.26777 4.73223C7.73661 5.20107 8 5.83696 8 6.5C8 7.16304 7.73661 7.79893 7.26777 8.26777C6.79893 8.73661 6.16304 9 5.5 9C4.83696 9 4.20107 8.73661 3.73223 8.26777C3.26339 7.79893 3 7.16304 3 6.5C3 5.83696 3.26339 5.20107 3.73223 4.73223C4.20107 4.26339 4.83696 4 5.5 4Z" fill="#1ABC9C"/>
</svg>
