<svg width="12" height="16" viewBox="0 0 12 16" fill="none" xmlns="http://www.w3.org/2000/svg">
<g clip-path="url(#clip0_1_1190)">
<path d="M11.7063 3.70615C12.0969 3.31553 12.0969 2.68115 11.7063 2.29053C11.3156 1.8999 10.6813 1.8999 10.2906 2.29053L0.290649 12.2905C-0.0999756 12.6812 -0.0999756 13.3155 0.290649 13.7062C0.681274 14.0968 1.31565 14.0968 1.70627 13.7062L11.7063 3.70615ZM4.00002 3.9999C4.00002 3.46947 3.78931 2.96076 3.41424 2.58569C3.03917 2.21062 2.53046 1.9999 2.00002 1.9999C1.46959 1.9999 0.960884 2.21062 0.585811 2.58569C0.210738 2.96076 2.44081e-05 3.46947 2.44081e-05 3.9999C2.44081e-05 4.53034 0.210738 5.03904 0.585811 5.41412C0.960884 5.78919 1.46959 5.9999 2.00002 5.9999C2.53046 5.9999 3.03917 5.78919 3.41424 5.41412C3.78931 5.03904 4.00002 4.53034 4.00002 3.9999ZM12 11.9999C12 11.4695 11.7893 10.9608 11.4142 10.5857C11.0392 10.2106 10.5305 9.9999 10 9.9999C9.46959 9.9999 8.96088 10.2106 8.58581 10.5857C8.21074 10.9608 8.00002 11.4695 8.00002 11.9999C8.00002 12.5303 8.21074 13.039 8.58581 13.4141C8.96088 13.7892 9.46959 13.9999 10 13.9999C10.5305 13.9999 11.0392 13.7892 11.4142 13.4141C11.7893 13.039 12 12.5303 12 11.9999Z" fill="#9B59B6"/>
</g>
<defs>
<clipPath id="clip0_1_1190">
<path d="M0 0H12V16H0V0Z" fill="white"/>
</clipPath>
</defs>
</svg>
