<svg width="15" height="16" viewBox="0 0 15 16" fill="none" xmlns="http://www.w3.org/2000/svg">
<g clip-path="url(#clip0_1_834)">
<path d="M8.375 2.5C8.375 1.94687 7.92812 1.5 7.375 1.5C6.82188 1.5 6.375 1.94687 6.375 2.5V7H1.875C1.32187 7 0.875 7.44688 0.875 8C0.875 8.55312 1.32187 9 1.875 9H6.375V13.5C6.375 14.0531 6.82188 14.5 7.375 14.5C7.92812 14.5 8.375 14.0531 8.375 13.5V9H12.875C13.4281 9 13.875 8.55312 13.875 8C13.875 7.44688 13.4281 7 12.875 7H8.375V2.5Z" fill="white"/>
</g>
<defs>
<clipPath id="clip0_1_834">
<path d="M0.375 0H14.375V16H0.375V0Z" fill="white"/>
</clipPath>
</defs>
</svg>
