<svg width="15" height="16" viewBox="0 0 15 16" fill="none" xmlns="http://www.w3.org/2000/svg">
<g clip-path="url(#clip0_1_805)">
<path d="M2.29688 1C1.19375 1 0.296875 1.89688 0.296875 3V13C0.296875 14.1031 1.19375 15 2.29688 15H12.2969C13.4 15 14.2969 14.1031 14.2969 13V5.41563C14.2969 4.88438 14.0875 4.375 13.7125 4L11.2969 1.58438C10.9219 1.20938 10.4125 1 9.88125 1H2.29688ZM2.29688 4C2.29688 3.44688 2.74375 3 3.29688 3H9.29688C9.85 3 10.2969 3.44688 10.2969 4V6C10.2969 6.55312 9.85 7 9.29688 7H3.29688C2.74375 7 2.29688 6.55312 2.29688 6V4ZM7.29688 9C7.82731 9 8.33602 9.21071 8.71109 9.58579C9.08616 9.96086 9.29688 10.4696 9.29688 11C9.29688 11.5304 9.08616 12.0391 8.71109 12.4142C8.33602 12.7893 7.82731 13 7.29688 13C6.76644 13 6.25773 12.7893 5.88266 12.4142C5.50759 12.0391 5.29688 11.5304 5.29688 11C5.29688 10.4696 5.50759 9.96086 5.88266 9.58579C6.25773 9.21071 6.76644 9 7.29688 9Z" fill="white"/>
</g>
<defs>
<clipPath id="clip0_1_805">
<path d="M0.296875 0H14.2969V16H0.296875V0Z" fill="white"/>
</clipPath>
</defs>
</svg>
