<svg width="16" height="16" viewBox="0 0 16 16" fill="none" xmlns="http://www.w3.org/2000/svg">
<g clip-path="url(#clip0_1_1185)">
<path d="M2.45616 0.156137C2.15928 -0.0751126 1.73741 -0.0469876 1.46866 0.218637L0.218659 1.46864C-0.046966 1.73426 -0.075091 2.15614 0.153034 2.45614L2.65303 5.70614C2.79366 5.89051 3.01553 5.99989 3.24678 5.99989H4.93741L8.34366 9.40614C7.88428 10.3124 8.03116 11.4499 8.79053 12.2061L12.2905 15.7061C12.6812 16.0968 13.3155 16.0968 13.7062 15.7061L15.7062 13.7061C16.0968 13.3155 16.0968 12.6811 15.7062 12.2905L12.2062 8.79051C11.4499 8.03426 10.3124 7.88426 9.40616 8.34364L5.99991 4.93739V3.24989C5.99991 3.01551 5.89053 2.79676 5.70616 2.65614L2.45616 0.156137ZM0.621784 12.378C0.224909 12.7749 -9.10025e-05 13.3155 -9.10025e-05 13.878C-9.10025e-05 15.0499 0.949909 15.9999 2.12178 15.9999C2.68428 15.9999 3.22491 15.7749 3.62178 15.378L7.30303 11.6968C7.05928 11.0436 7.02178 10.3343 7.19053 9.66239L5.26241 7.73426L0.621784 12.378ZM15.9999 4.49989C15.9999 4.17176 15.9655 3.85301 15.8999 3.54676C15.8249 3.19676 15.3968 3.10614 15.1437 3.35926L13.1468 5.35614C13.053 5.44989 12.9249 5.50301 12.7937 5.50301H10.9999C10.7249 5.50301 10.4999 5.27801 10.4999 5.00301V3.20614C10.4999 3.07489 10.553 2.94676 10.6468 2.85301L12.6437 0.856137C12.8968 0.603012 12.8062 0.174887 12.4562 0.0998874C12.1468 0.0342624 11.828 -0.000112621 11.4999 -0.000112621C9.01553 -0.000112621 6.99991 2.01551 6.99991 4.49989V4.52489L9.66553 7.19051C10.7905 6.90614 12.0343 7.20614 12.9155 8.08739L13.4062 8.57801C14.9374 7.85926 15.9999 6.30301 15.9999 4.49989ZM1.74991 13.4999C1.74991 13.301 1.82893 13.1102 1.96958 12.9696C2.11023 12.8289 2.301 12.7499 2.49991 12.7499C2.69882 12.7499 2.88959 12.8289 3.03024 12.9696C3.17089 13.1102 3.24991 13.301 3.24991 13.4999C3.24991 13.6988 3.17089 13.8896 3.03024 14.0302C2.88959 14.1709 2.69882 14.2499 2.49991 14.2499C2.301 14.2499 2.11023 14.1709 1.96958 14.0302C1.82893 13.8896 1.74991 13.6988 1.74991 13.4999Z" fill="#F1C40F"/>
</g>
<defs>
<clipPath id="clip0_1_1185">
<path d="M0 0H16V16H0V0Z" fill="white"/>
</clipPath>
</defs>
</svg>
