<svg width="18" height="21" viewBox="0 0 18 21" fill="none" xmlns="http://www.w3.org/2000/svg">
<g clip-path="url(#clip0_1_797)">
<path d="M14.8789 4.29297C13.2422 2.65234 11.0625 1.75 8.74609 1.75C3.96484 1.75 0.0742188 5.64062 0.0742188 10.4219C0.0742188 11.9492 0.472656 13.4414 1.23047 14.7578L0 19.25L4.59766 18.043C5.86328 18.7344 7.28906 19.0977 8.74219 19.0977H8.74609C13.5234 19.0977 17.5 15.207 17.5 10.4258C17.5 8.10938 16.5156 5.93359 14.8789 4.29297ZM8.74609 17.6367C7.44922 17.6367 6.17969 17.2891 5.07422 16.6328L4.8125 16.4766L2.08594 17.1914L2.8125 14.5312L2.64062 14.2578C1.91797 13.1094 1.53906 11.7852 1.53906 10.4219C1.53906 6.44922 4.77344 3.21484 8.75 3.21484C10.6758 3.21484 12.4844 3.96484 13.8438 5.32812C15.2031 6.69141 16.0391 8.5 16.0352 10.4258C16.0352 14.4023 12.7188 17.6367 8.74609 17.6367ZM12.6992 12.2383C12.4844 12.1289 11.418 11.6055 11.2188 11.5352C11.0195 11.4609 10.875 11.4258 10.7305 11.6445C10.5859 11.8633 10.1719 12.3477 10.043 12.4961C9.91797 12.6406 9.78906 12.6602 9.57422 12.5508C8.30078 11.9141 7.46484 11.4141 6.625 9.97266C6.40234 9.58984 6.84766 9.61719 7.26172 8.78906C7.33203 8.64453 7.29687 8.51953 7.24219 8.41016C7.1875 8.30078 6.75391 7.23438 6.57422 6.80078C6.39844 6.37891 6.21875 6.4375 6.08594 6.42969C5.96094 6.42188 5.81641 6.42188 5.67188 6.42188C5.52734 6.42188 5.29297 6.47656 5.09375 6.69141C4.89453 6.91016 4.33594 7.43359 4.33594 8.5C4.33594 9.56641 5.11328 10.5977 5.21875 10.7422C5.32812 10.8867 6.74609 13.0742 8.92188 14.0156C10.2969 14.6094 10.8359 14.6602 11.5234 14.5586C11.9414 14.4961 12.8047 14.0352 12.9844 13.5273C13.1641 13.0195 13.1641 12.5859 13.1094 12.4961C13.0586 12.3984 12.9141 12.3438 12.6992 12.2383Z" fill="#2ECC71"/>
</g>
<defs>
<clipPath id="clip0_1_797">
<path d="M0 0.5H17.5V20.5H0V0.5Z" fill="white"/>
</clipPath>
</defs>
</svg>
