<svg width="14" height="15" viewBox="0 0 14 15" fill="none" xmlns="http://www.w3.org/2000/svg">
<path d="M14 14.75H0V0.75H14V14.75Z" stroke="#E5E7EB"/>
<path d="M0.875 1.625C1.35898 1.625 1.75 2.01602 1.75 2.5V11.6875C1.75 11.9281 1.94687 12.125 2.1875 12.125H13.125C13.609 12.125 14 12.516 14 13C14 13.484 13.609 13.875 13.125 13.875H2.1875C0.978906 13.875 0 12.8961 0 11.6875V2.5C0 2.01602 0.391016 1.625 0.875 1.625ZM3.5 4.25C3.5 3.76602 3.89102 3.375 4.375 3.375H9.625C10.109 3.375 10.5 3.76602 10.5 4.25C10.5 4.73398 10.109 5.125 9.625 5.125H4.375C3.89102 5.125 3.5 4.73398 3.5 4.25ZM4.375 6H7.875C8.35898 6 8.75 6.39102 8.75 6.875C8.75 7.35898 8.35898 7.75 7.875 7.75H4.375C3.89102 7.75 3.5 7.35898 3.5 6.875C3.5 6.39102 3.89102 6 4.375 6ZM4.375 8.625H11.375C11.859 8.625 12.25 9.01602 12.25 9.5C12.25 9.98398 11.859 10.375 11.375 10.375H4.375C3.89102 10.375 3.5 9.98398 3.5 9.5C3.5 9.01602 3.89102 8.625 4.375 8.625Z" fill="#4B5563"/>
</svg>
