<svg width="16" height="15" viewBox="0 0 16 15" fill="none" xmlns="http://www.w3.org/2000/svg">
<g clip-path="url(#clip0_1_8892)">
<path d="M0 4.25C0 3.28477 0.784766 2.5 1.75 2.5H8.75C9.71523 2.5 10.5 3.28477 10.5 4.25V11.25C10.5 12.2152 9.71523 13 8.75 13H1.75C0.784766 13 0 12.2152 0 11.25V4.25ZM15.2879 3.47891C15.5723 3.63203 15.75 3.92734 15.75 4.25V11.25C15.75 11.5727 15.5723 11.868 15.2879 12.0211C15.0035 12.1742 14.659 12.1578 14.3883 11.9773L11.7633 10.2273L11.375 9.96758V9.5V6V5.53242L11.7633 5.27266L14.3883 3.52266C14.6562 3.34492 15.0008 3.32578 15.2879 3.47891Z" fill="#4B5563"/>
</g>
<defs>
<clipPath id="clip0_1_8892">
<path d="M0 0.75H15.75V14.75H0V0.75Z" fill="white"/>
</clipPath>
</defs>
</svg>
