<svg width="16" height="15" viewBox="0 0 16 15" fill="none" xmlns="http://www.w3.org/2000/svg">
<g clip-path="url(#clip0_1_8886)">
<path d="M0 3.375C0 2.40977 0.784766 1.625 1.75 1.625H14C14.9652 1.625 15.75 2.40977 15.75 3.375V12.125C15.75 13.0902 14.9652 13.875 14 13.875H1.75C0.784766 13.875 0 13.0902 0 12.125V3.375ZM3.5 8.625C3.73206 8.625 3.95462 8.53281 4.11872 8.36872C4.28281 8.20462 4.375 7.98206 4.375 7.75C4.375 7.51794 4.28281 7.29538 4.11872 7.13128C3.95462 6.96719 3.73206 6.875 3.5 6.875C3.26794 6.875 3.04538 6.96719 2.88128 7.13128C2.71719 7.29538 2.625 7.51794 2.625 7.75C2.625 7.98206 2.71719 8.20462 2.88128 8.36872C3.04538 8.53281 3.26794 8.625 3.5 8.625ZM4.375 5.125C4.375 4.89294 4.28281 4.67038 4.11872 4.50628C3.95462 4.34219 3.73206 4.25 3.5 4.25C3.26794 4.25 3.04538 4.34219 2.88128 4.50628C2.71719 4.67038 2.625 4.89294 2.625 5.125C2.625 5.35706 2.71719 5.57962 2.88128 5.74372C3.04538 5.90781 3.26794 6 3.5 6C3.73206 6 3.95462 5.90781 4.11872 5.74372C4.28281 5.57962 4.375 5.35706 4.375 5.125ZM3.5 11.25C3.73206 11.25 3.95462 11.1578 4.11872 10.9937C4.28281 10.8296 4.375 10.6071 4.375 10.375C4.375 10.1429 4.28281 9.92038 4.11872 9.75628C3.95462 9.59219 3.73206 9.5 3.5 9.5C3.26794 9.5 3.04538 9.59219 2.88128 9.75628C2.71719 9.92038 2.625 10.1429 2.625 10.375C2.625 10.6071 2.71719 10.8296 2.88128 10.9937C3.04538 11.1578 3.26794 11.25 3.5 11.25ZM6.125 4.46875C5.76133 4.46875 5.46875 4.76133 5.46875 5.125C5.46875 5.48867 5.76133 5.78125 6.125 5.78125H12.25C12.6137 5.78125 12.9062 5.48867 12.9062 5.125C12.9062 4.76133 12.6137 4.46875 12.25 4.46875H6.125ZM6.125 7.09375C5.76133 7.09375 5.46875 7.38633 5.46875 7.75C5.46875 8.11367 5.76133 8.40625 6.125 8.40625H12.25C12.6137 8.40625 12.9062 8.11367 12.9062 7.75C12.9062 7.38633 12.6137 7.09375 12.25 7.09375H6.125ZM6.125 9.71875C5.76133 9.71875 5.46875 10.0113 5.46875 10.375C5.46875 10.7387 5.76133 11.0312 6.125 11.0312H12.25C12.6137 11.0312 12.9062 10.7387 12.9062 10.375C12.9062 10.0113 12.6137 9.71875 12.25 9.71875H6.125Z" fill="#4B5563"/>
</g>
<defs>
<clipPath id="clip0_1_8886">
<path d="M0 0.75H15.75V14.75H0V0.75Z" fill="white"/>
</clipPath>
</defs>
</svg>
