<svg width="11" height="15" viewBox="0 0 11 15" fill="none" xmlns="http://www.w3.org/2000/svg">
<g clip-path="url(#clip0_1_1771)">
<path d="M2.625 0.75C2.14102 0.75 1.75 1.14102 1.75 1.625V4.25H3.5V1.625C3.5 1.14102 3.10898 0.75 2.625 0.75ZM7.875 0.75C7.39102 0.75 7 1.14102 7 1.625V4.25H8.75V1.625C8.75 1.14102 8.35898 0.75 7.875 0.75ZM0.875 5.125C0.391016 5.125 0 5.51602 0 6C0 6.48398 0.391016 6.875 0.875 6.875V7.75C0.875 9.86641 2.37891 11.6328 4.375 12.0375V13.875C4.375 14.359 4.76602 14.75 5.25 14.75C5.73398 14.75 6.125 14.359 6.125 13.875V12.0375C8.12109 11.6328 9.625 9.86641 9.625 7.75V6.875C10.109 6.875 10.5 6.48398 10.5 6C10.5 5.51602 10.109 5.125 9.625 5.125H0.875Z" fill="#0A6ED1"/>
</g>
<defs>
<clipPath id="clip0_1_1771">
<path d="M0 0.75H10.5V14.75H0V0.75Z" fill="white"/>
</clipPath>
</defs>
</svg>
