<svg width="11" height="15" viewBox="0 0 11 15" fill="none" xmlns="http://www.w3.org/2000/svg">
<g clip-path="url(#clip0_1_2898)">
<path d="M1.3125 0.75C0.587891 0.75 0 1.33789 0 2.0625V13.4375C0 14.1621 0.587891 14.75 1.3125 14.75H3.9375V12.5625C3.9375 11.8379 4.52539 11.25 5.25 11.25C5.97461 11.25 6.5625 11.8379 6.5625 12.5625V14.75H9.1875C9.91211 14.75 10.5 14.1621 10.5 13.4375V2.0625C10.5 1.33789 9.91211 0.75 9.1875 0.75H1.3125ZM1.75 7.3125C1.75 7.07188 1.94687 6.875 2.1875 6.875H3.0625C3.30312 6.875 3.5 7.07188 3.5 7.3125V8.1875C3.5 8.42812 3.30312 8.625 3.0625 8.625H2.1875C1.94687 8.625 1.75 8.42812 1.75 8.1875V7.3125ZM4.8125 6.875H5.6875C5.92812 6.875 6.125 7.07188 6.125 7.3125V8.1875C6.125 8.42812 5.92812 8.625 5.6875 8.625H4.8125C4.57188 8.625 4.375 8.42812 4.375 8.1875V7.3125C4.375 7.07188 4.57188 6.875 4.8125 6.875ZM7 7.3125C7 7.07188 7.19688 6.875 7.4375 6.875H8.3125C8.55313 6.875 8.75 7.07188 8.75 7.3125V8.1875C8.75 8.42812 8.55313 8.625 8.3125 8.625H7.4375C7.19688 8.625 7 8.42812 7 8.1875V7.3125ZM2.1875 3.375H3.0625C3.30312 3.375 3.5 3.57188 3.5 3.8125V4.6875C3.5 4.92812 3.30312 5.125 3.0625 5.125H2.1875C1.94687 5.125 1.75 4.92812 1.75 4.6875V3.8125C1.75 3.57188 1.94687 3.375 2.1875 3.375ZM4.375 3.8125C4.375 3.57188 4.57188 3.375 4.8125 3.375H5.6875C5.92812 3.375 6.125 3.57188 6.125 3.8125V4.6875C6.125 4.92812 5.92812 5.125 5.6875 5.125H4.8125C4.57188 5.125 4.375 4.92812 4.375 4.6875V3.8125ZM7.4375 3.375H8.3125C8.55313 3.375 8.75 3.57188 8.75 3.8125V4.6875C8.75 4.92812 8.55313 5.125 8.3125 5.125H7.4375C7.19688 5.125 7 4.92812 7 4.6875V3.8125C7 3.57188 7.19688 3.375 7.4375 3.375Z" fill="#0A6ED1"/>
</g>
<defs>
<clipPath id="clip0_1_2898">
<path d="M0 0.75H10.5V14.75H0V0.75Z" fill="white"/>
</clipPath>
</defs>
</svg>
