<svg width="13" height="15" viewBox="0 0 13 15" fill="none" xmlns="http://www.w3.org/2000/svg">
<g clip-path="url(#clip0_1_1140)">
<path d="M10.4152 3.40508C9.26953 2.25664 7.74375 1.625 6.12227 1.625C2.77539 1.625 0.0519531 4.34844 0.0519531 7.69531C0.0519531 8.76445 0.330859 9.80898 0.861328 10.7305L0 13.875L3.21836 13.0301C4.1043 13.5141 5.10234 13.7684 6.11953 13.7684H6.12227C9.46641 13.7684 12.25 11.0449 12.25 7.69805C12.25 6.07656 11.5609 4.55352 10.4152 3.40508ZM6.12227 12.7457C5.21445 12.7457 4.32578 12.5023 3.55195 12.043L3.36875 11.9336L1.46016 12.434L1.96875 10.5719L1.84844 10.3805C1.34258 9.57656 1.07734 8.64961 1.07734 7.69531C1.07734 4.91445 3.34141 2.65039 6.125 2.65039C7.47305 2.65039 8.73906 3.17539 9.69063 4.12969C10.6422 5.08398 11.2273 6.35 11.2246 7.69805C11.2246 10.4816 8.90312 12.7457 6.12227 12.7457ZM8.88945 8.9668C8.73906 8.89023 7.99258 8.52383 7.85313 8.47461C7.71367 8.42266 7.6125 8.39805 7.51133 8.55117C7.41016 8.7043 7.12031 9.04336 7.03008 9.14727C6.94258 9.24844 6.85234 9.26211 6.70195 9.18555C5.81055 8.73984 5.22539 8.38984 4.6375 7.38086C4.48164 7.11289 4.79336 7.13203 5.0832 6.55234C5.13242 6.45117 5.10781 6.36367 5.06953 6.28711C5.03125 6.21055 4.72773 5.46406 4.60195 5.16055C4.47891 4.86523 4.35313 4.90625 4.26016 4.90078C4.17266 4.89531 4.07148 4.89531 3.97031 4.89531C3.86914 4.89531 3.70508 4.93359 3.56562 5.08398C3.42617 5.23711 3.03516 5.60352 3.03516 6.35C3.03516 7.09648 3.5793 7.81836 3.65313 7.91953C3.72969 8.0207 4.72227 9.55195 6.24531 10.2109C7.20781 10.6266 7.58516 10.6621 8.06641 10.591C8.35898 10.5473 8.96328 10.2246 9.08906 9.86914C9.21484 9.51367 9.21484 9.21016 9.17656 9.14727C9.14102 9.07891 9.03984 9.04063 8.88945 8.9668Z" fill="#0A6ED1"/>
</g>
<defs>
<clipPath id="clip0_1_1140">
<path d="M0 0.75H12.25V14.75H0V0.75Z" fill="white"/>
</clipPath>
</defs>
</svg>
