<svg width="16" height="15" viewBox="0 0 16 15" fill="none" xmlns="http://www.w3.org/2000/svg">
<g clip-path="url(#clip0_643_9513)">
<path d="M8.3125 7.3125V1.20391C8.3125 0.957813 8.50391 0.75 8.75 0.75C12.1324 0.75 14.875 3.49258 14.875 6.875C14.875 7.12109 14.6672 7.3125 14.4211 7.3125H8.3125ZM0.875 8.1875C0.875 4.8707 3.33867 2.12539 6.53516 1.68789C6.78672 1.65234 7 1.85469 7 2.10898V8.625L11.2793 12.9043C11.4625 13.0875 11.4488 13.3883 11.2383 13.5359C10.1664 14.3016 8.85391 14.75 7.4375 14.75C3.81445 14.75 0.875 11.8133 0.875 8.1875ZM15.2688 8.625C15.523 8.625 15.7227 8.83828 15.6898 9.08984C15.4793 10.6184 14.7437 11.9773 13.6691 12.9809C13.5051 13.134 13.248 13.123 13.0895 12.9617L8.75 8.625H15.2688Z" fill="white"/>
</g>
<defs>
<clipPath id="clip0_643_9513">
<path d="M0 0.75H15.75V14.75H0V0.75Z" fill="white"/>
</clipPath>
</defs>
</svg>
