<svg width="14" height="15" viewBox="0 0 14 15" fill="none" xmlns="http://www.w3.org/2000/svg">
<g clip-path="url(#clip0_1_8898)">
<path d="M13.5602 5.30547C13.6477 5.54336 13.5739 5.80859 13.3852 5.97813L12.2012 7.05547C12.2313 7.28242 12.2477 7.51484 12.2477 7.75C12.2477 7.98516 12.2313 8.21758 12.2012 8.44453L13.3852 9.52187C13.5739 9.69141 13.6477 9.95664 13.5602 10.1945C13.4399 10.5199 13.295 10.8316 13.1282 11.1324L12.9997 11.3539C12.8192 11.6547 12.6169 11.9391 12.3954 12.207C12.234 12.4039 11.9661 12.4695 11.7254 12.393L10.2024 11.909C9.83599 12.1906 9.43131 12.4258 8.99928 12.6035L8.65748 14.1648C8.60279 14.4137 8.41138 14.6105 8.15982 14.6516C7.78248 14.7145 7.3942 14.7473 6.99771 14.7473C6.60123 14.7473 6.21295 14.7145 5.8356 14.6516C5.58404 14.6105 5.39263 14.4137 5.33795 14.1648L4.99615 12.6035C4.56412 12.4258 4.15943 12.1906 3.79302 11.909L2.27271 12.3957C2.03209 12.4723 1.76412 12.4039 1.60279 12.2098C1.38131 11.9418 1.17896 11.6574 0.998493 11.3566L0.869978 11.1352C0.703181 10.8344 0.558259 10.5227 0.437946 10.1973C0.350446 9.95938 0.424275 9.69414 0.612946 9.52461L1.79693 8.44727C1.76685 8.21758 1.75045 7.98516 1.75045 7.75C1.75045 7.51484 1.76685 7.28242 1.79693 7.05547L0.612946 5.97813C0.424275 5.80859 0.350446 5.54336 0.437946 5.30547C0.558259 4.98008 0.703181 4.66836 0.869978 4.36758L0.998493 4.14609C1.17896 3.84531 1.38131 3.56094 1.60279 3.29297C1.76412 3.09609 2.03209 3.03047 2.27271 3.10703L3.79576 3.59102C4.16217 3.30938 4.56685 3.07422 4.99888 2.89648L5.34068 1.33516C5.39537 1.08633 5.58677 0.889453 5.83834 0.848437C6.21568 0.782812 6.60396 0.75 7.00045 0.75C7.39693 0.75 7.78521 0.782813 8.16256 0.845703C8.41412 0.886719 8.60553 1.08359 8.66021 1.33242L9.00201 2.89375C9.43404 3.07148 9.83873 3.30664 10.2051 3.58828L11.7282 3.1043C11.9688 3.02773 12.2368 3.09609 12.3981 3.29023C12.6196 3.5582 12.8219 3.84258 13.0024 4.14336L13.1309 4.36484C13.2977 4.66562 13.4426 4.97734 13.5629 5.30273L13.5602 5.30547ZM7.00045 9.9375C7.58061 9.9375 8.13701 9.70703 8.54724 9.2968C8.95748 8.88656 9.18795 8.33016 9.18795 7.75C9.18795 7.16984 8.95748 6.61344 8.54724 6.2032C8.13701 5.79297 7.58061 5.5625 7.00045 5.5625C6.42029 5.5625 5.86389 5.79297 5.45365 6.2032C5.04341 6.61344 4.81295 7.16984 4.81295 7.75C4.81295 8.33016 5.04341 8.88656 5.45365 9.2968C5.86389 9.70703 6.42029 9.9375 7.00045 9.9375Z" fill="#4B5563"/>
</g>
<defs>
<clipPath id="clip0_1_8898">
<path d="M0 0.75H14V14.75H0V0.75Z" fill="white"/>
</clipPath>
</defs>
</svg>
