<svg width="16" height="16" viewBox="0 0 16 16" fill="none" xmlns="http://www.w3.org/2000/svg">
<path d="M16 16H0V0H16V16Z" stroke="#E5E7EB"/>
<path d="M6.75 2C6.33437 2 6 2.33437 6 2.75C6 3.16562 6.33437 3.5 6.75 3.5H7.25V4.54063C3.7375 4.9125 1 7.8875 1 11.5H15C15 7.8875 12.2625 4.9125 8.75 4.54063V3.5H9.25C9.66562 3.5 10 3.16562 10 2.75C10 2.33437 9.66562 2 9.25 2H8H6.75ZM0.75 12.5C0.334375 12.5 0 12.8344 0 13.25C0 13.6656 0.334375 14 0.75 14H15.25C15.6656 14 16 13.6656 16 13.25C16 12.8344 15.6656 12.5 15.25 12.5H0.75Z" fill="#1ABC9C"/>
</svg>
