<svg width="18" height="16" viewBox="0 0 18 16" fill="none" xmlns="http://www.w3.org/2000/svg">
<g clip-path="url(#clip0_1_3628)">
<path d="M17.7062 1.70615C18.0969 1.31553 18.0969 0.681152 17.7062 0.290527C17.3156 -0.100098 16.6812 -0.100098 16.2906 0.290527L10.2906 6.29053L9.20625 5.20615C9.075 5.0749 8.89375 4.9999 8.70625 4.9999C8.31563 4.9999 8 5.31553 8 5.70615V6.61553L11.3844 9.9999H12.2937C12.6844 9.9999 13 9.68428 13 9.29365C13 9.10615 12.925 8.9249 12.7937 8.79365L11.7094 7.70928L17.7094 1.70928L17.7062 1.70615ZM10.6594 11.0437L6.95625 7.34053C5.62188 7.2249 4.29375 7.70615 3.3375 8.6624L3.0875 8.9124C2.39062 9.60928 2 10.553 2 11.5374C2 11.7499 2.22187 11.8874 2.4125 11.7937L4.00938 10.9968C4.16563 10.9187 4.30625 11.1249 4.17812 11.2437L0.228125 14.7937C0.084375 14.9249 0 15.1124 0 15.3093C0 15.6905 0.309375 15.9999 0.690625 15.9999H6.10625C7.31875 15.9999 8.47812 15.5187 9.3375 14.6624C10.2937 13.7062 10.7719 12.378 10.6594 11.0437Z" fill="#2ECC71"/>
</g>
<defs>
<clipPath id="clip0_1_3628">
<path d="M0 0H18V16H0V0Z" fill="white"/>
</clipPath>
</defs>
</svg>
