<svg width="12" height="13" viewBox="0 0 12 13" fill="none" xmlns="http://www.w3.org/2000/svg">
<g clip-path="url(#clip0_1_3739)">
<path d="M5.81254 0.5C5.3977 0.5 5.06254 0.835156 5.06254 1.25V1.7C3.3516 2.04688 2.06254 3.56094 2.06254 5.375V5.81563C2.06254 6.91719 1.65707 7.98125 0.925821 8.80625L0.752383 9.00078C0.555508 9.22109 0.508633 9.5375 0.628165 9.80703C0.747696 10.0766 1.01723 10.25 1.31254 10.25H10.3125C10.6079 10.25 10.875 10.0766 10.9969 9.80703C11.1188 9.5375 11.0696 9.22109 10.8727 9.00078L10.6993 8.80625C9.96801 7.98125 9.56254 6.91953 9.56254 5.81563V5.375C9.56254 3.56094 8.27348 2.04688 6.56254 1.7V1.25C6.56254 0.835156 6.22738 0.5 5.81254 0.5ZM6.87426 12.0617C7.15551 11.7805 7.31254 11.3984 7.31254 11H5.81254H4.31254C4.31254 11.3984 4.46957 11.7805 4.75082 12.0617C5.03207 12.343 5.4141 12.5 5.81254 12.5C6.21098 12.5 6.59301 12.343 6.87426 12.0617Z" fill="#F1C40F"/>
</g>
<defs>
<clipPath id="clip0_1_3739">
<path d="M0.5625 0.5H11.0625V12.5H0.5625V0.5Z" fill="white"/>
</clipPath>
</defs>
</svg>
