<svg width="15" height="16" viewBox="0 0 15 16" fill="none" xmlns="http://www.w3.org/2000/svg">
<g clip-path="url(#clip0_1_3357)">
<path d="M8.3125 2.5C8.3125 1.94687 7.86562 1.5 7.3125 1.5C6.75938 1.5 6.3125 1.94687 6.3125 2.5V7H1.8125C1.25937 7 0.8125 7.44688 0.8125 8C0.8125 8.55312 1.25937 9 1.8125 9H6.3125V13.5C6.3125 14.0531 6.75938 14.5 7.3125 14.5C7.86562 14.5 8.3125 14.0531 8.3125 13.5V9H12.8125C13.3656 9 13.8125 8.55312 13.8125 8C13.8125 7.44688 13.3656 7 12.8125 7H8.3125V2.5Z" fill="white"/>
</g>
<defs>
<clipPath id="clip0_1_3357">
<path d="M0.3125 0H14.3125V16H0.3125V0Z" fill="white"/>
</clipPath>
</defs>
</svg>
