<svg width="17" height="16" viewBox="0 0 17 16" fill="none" xmlns="http://www.w3.org/2000/svg">
<g clip-path="url(#clip0_1_3354)">
<path d="M13.0469 6.5C13.0469 7.93437 12.5813 9.25938 11.7969 10.3344L15.7531 14.2937C16.1437 14.6844 16.1437 15.3188 15.7531 15.7094C15.3625 16.1 14.7281 16.1 14.3375 15.7094L10.3813 11.75C9.30625 12.5375 7.98125 13 6.54688 13C2.95625 13 0.046875 10.0906 0.046875 6.5C0.046875 2.90937 2.95625 0 6.54688 0C10.1375 0 13.0469 2.90937 13.0469 6.5ZM6.54688 11C7.13782 11 7.72299 10.8836 8.26895 10.6575C8.81492 10.4313 9.31099 10.0998 9.72886 9.68198C10.1467 9.26412 10.4782 8.76804 10.7043 8.22208C10.9305 7.67611 11.0469 7.09095 11.0469 6.5C11.0469 5.90905 10.9305 5.32389 10.7043 4.77792C10.4782 4.23196 10.1467 3.73588 9.72886 3.31802C9.31099 2.90016 8.81492 2.56869 8.26895 2.34254C7.72299 2.1164 7.13782 2 6.54688 2C5.95593 2 5.37076 2.1164 4.8248 2.34254C4.27883 2.56869 3.78276 2.90016 3.36489 3.31802C2.94703 3.73588 2.61556 4.23196 2.38942 4.77792C2.16327 5.32389 2.04687 5.90905 2.04687 6.5C2.04687 7.09095 2.16327 7.67611 2.38942 8.22208C2.61556 8.76804 2.94703 9.26412 3.36489 9.68198C3.78276 10.0998 4.27883 10.4313 4.8248 10.6575C5.37076 10.8836 5.95593 11 6.54688 11Z" fill="#9CA3AF"/>
</g>
<defs>
<clipPath id="clip0_1_3354">
<path d="M0.046875 0H16.0469V16H0.046875V0Z" fill="white"/>
</clipPath>
</defs>
</svg>
