<svg width="11" height="13" viewBox="0 0 11 13" fill="none" xmlns="http://www.w3.org/2000/svg">
<g clip-path="url(#clip0_1_3734)">
<path d="M9.20859 2.77578C8.22656 1.79141 6.91875 1.25 5.52891 1.25C2.66016 1.25 0.325781 3.58437 0.325781 6.45312C0.325781 7.36953 0.564844 8.26484 1.01953 9.05469L0.28125 11.75L3.03984 11.0258C3.79922 11.4406 4.65469 11.6586 5.52656 11.6586H5.52891C8.39531 11.6586 10.7812 9.32422 10.7812 6.45547C10.7812 5.06563 10.1906 3.76016 9.20859 2.77578ZM5.52891 10.782C4.75078 10.782 3.98906 10.5734 3.32578 10.1797L3.16875 10.0859L1.53281 10.5148L1.96875 8.91875L1.86562 8.75469C1.43203 8.06563 1.20469 7.27109 1.20469 6.45312C1.20469 4.06953 3.14531 2.12891 5.53125 2.12891C6.68672 2.12891 7.77187 2.57891 8.5875 3.39687C9.40312 4.21484 9.90469 5.3 9.90234 6.45547C9.90234 8.84141 7.9125 10.782 5.52891 10.782ZM7.90078 7.54297C7.77188 7.47734 7.13203 7.16328 7.0125 7.12109C6.89297 7.07656 6.80625 7.05547 6.71953 7.18672C6.63281 7.31797 6.38438 7.60859 6.30703 7.69766C6.23203 7.78438 6.15469 7.79609 6.02578 7.73047C5.26172 7.34844 4.76016 7.04844 4.25625 6.18359C4.12266 5.95391 4.38984 5.97031 4.63828 5.47344C4.68047 5.38672 4.65937 5.31172 4.62656 5.24609C4.59375 5.18047 4.33359 4.54063 4.22578 4.28047C4.12031 4.02734 4.0125 4.0625 3.93281 4.05781C3.85781 4.05313 3.77109 4.05313 3.68437 4.05313C3.59766 4.05313 3.45703 4.08594 3.3375 4.21484C3.21797 4.34609 2.88281 4.66016 2.88281 5.3C2.88281 5.93984 3.34922 6.55859 3.4125 6.64531C3.47813 6.73203 4.32891 8.04453 5.63437 8.60938C6.45937 8.96562 6.78281 8.99609 7.19531 8.93516C7.44609 8.89766 7.96406 8.62109 8.07187 8.31641C8.17969 8.01172 8.17969 7.75156 8.14688 7.69766C8.11641 7.63906 8.02969 7.60625 7.90078 7.54297Z" fill="#2ECC71"/>
</g>
<defs>
<clipPath id="clip0_1_3734">
<path d="M0.28125 0.5H10.7812V12.5H0.28125V0.5Z" fill="white"/>
</clipPath>
</defs>
</svg>
