<svg width="17" height="16" viewBox="0 0 17 16" fill="none" xmlns="http://www.w3.org/2000/svg">
<g clip-path="url(#clip0_1_2815)">
<path d="M9.21875 3.41582V11.0002C9.21875 11.5533 8.77188 12.0002 8.21875 12.0002C7.66563 12.0002 7.21875 11.5533 7.21875 11.0002V3.41582L4.925 5.70957C4.53438 6.1002 3.9 6.1002 3.50938 5.70957C3.11875 5.31895 3.11875 4.68457 3.50938 4.29395L7.50938 0.293945C7.9 -0.0966797 8.53438 -0.0966797 8.925 0.293945L12.925 4.29395C13.3156 4.68457 13.3156 5.31895 12.925 5.70957C12.5344 6.1002 11.9 6.1002 11.5094 5.70957L9.21875 3.41582ZM2.21875 11.0002H6.21875C6.21875 12.1033 7.11562 13.0002 8.21875 13.0002C9.32187 13.0002 10.2188 12.1033 10.2188 11.0002H14.2188C15.3219 11.0002 16.2188 11.8971 16.2188 13.0002V14.0002C16.2188 15.1033 15.3219 16.0002 14.2188 16.0002H2.21875C1.11563 16.0002 0.21875 15.1033 0.21875 14.0002V13.0002C0.21875 11.8971 1.11563 11.0002 2.21875 11.0002ZM13.7188 14.2502C13.9177 14.2502 14.1084 14.1712 14.2491 14.0305C14.3897 13.8899 14.4688 13.6991 14.4688 13.5002C14.4688 13.3013 14.3897 13.1105 14.2491 12.9699C14.1084 12.8292 13.9177 12.7502 13.7188 12.7502C13.5198 12.7502 13.3291 12.8292 13.1884 12.9699C13.0478 13.1105 12.9688 13.3013 12.9688 13.5002C12.9688 13.6991 13.0478 13.8899 13.1884 14.0305C13.3291 14.1712 13.5198 14.2502 13.7188 14.2502Z" fill="white"/>
</g>
<defs>
<clipPath id="clip0_1_2815">
<path d="M0.21875 0H16.2188V16H0.21875V0Z" fill="white"/>
</clipPath>
</defs>
</svg>
