<svg width="15" height="16" viewBox="0 0 15 16" fill="none" xmlns="http://www.w3.org/2000/svg">
<g clip-path="url(#clip0_1_3139)">
<path d="M5.17812 0.553125L4.95312 1H1.95312C1.4 1 0.953125 1.44687 0.953125 2C0.953125 2.55312 1.4 3 1.95312 3H13.9531C14.5063 3 14.9531 2.55312 14.9531 2C14.9531 1.44687 14.5063 1 13.9531 1H10.9531L10.7281 0.553125C10.5594 0.2125 10.2125 0 9.83438 0H6.07188C5.69375 0 5.34687 0.2125 5.17812 0.553125ZM13.9531 4H1.95312L2.61563 14.5938C2.66562 15.3844 3.32188 16 4.1125 16H11.7937C12.5844 16 13.2406 15.3844 13.2906 14.5938L13.9531 4Z" fill="#4B5563"/>
</g>
<defs>
<clipPath id="clip0_1_3139">
<path d="M0.953125 0H14.9531V16H0.953125V0Z" fill="white"/>
</clipPath>
</defs>
</svg>
