<svg width="17" height="16" viewBox="0 0 17 16" fill="none" xmlns="http://www.w3.org/2000/svg">
<g clip-path="url(#clip0_1_3154)">
<path d="M15.6906 0.67832C15.0063 -0.0060547 13.9 -0.0060547 13.2156 0.67832L12.275 1.61582L15.3344 4.6752L16.275 3.73457C16.9594 3.0502 16.9594 1.94395 16.275 1.25957L15.6906 0.67832ZM6.34062 7.55332C6.15 7.74395 6.00312 7.97832 5.91875 8.2377L4.99375 11.0127C4.90313 11.2814 4.975 11.5783 5.175 11.7814C5.375 11.9846 5.67188 12.0533 5.94375 11.9627L8.71875 11.0377C8.975 10.9533 9.20937 10.8064 9.40312 10.6158L14.6313 5.38457L11.5688 2.32207L6.34062 7.55332ZM3.95312 2.0002C2.29688 2.0002 0.953125 3.34395 0.953125 5.0002V13.0002C0.953125 14.6564 2.29688 16.0002 3.95312 16.0002H11.9531C13.6094 16.0002 14.9531 14.6564 14.9531 13.0002V10.0002C14.9531 9.44707 14.5063 9.0002 13.9531 9.0002C13.4 9.0002 12.9531 9.44707 12.9531 10.0002V13.0002C12.9531 13.5533 12.5063 14.0002 11.9531 14.0002H3.95312C3.4 14.0002 2.95312 13.5533 2.95312 13.0002V5.0002C2.95312 4.44707 3.4 4.0002 3.95312 4.0002H6.95312C7.50625 4.0002 7.95312 3.55332 7.95312 3.0002C7.95312 2.44707 7.50625 2.0002 6.95312 2.0002H3.95312Z" fill="#4B5563"/>
</g>
<defs>
<clipPath id="clip0_1_3154">
<path d="M0.953125 0H16.9531V16H0.953125V0Z" fill="white"/>
</clipPath>
</defs>
</svg>
