<svg width="13" height="15" viewBox="0 0 13 15" fill="none" xmlns="http://www.w3.org/2000/svg">
<g clip-path="url(#clip0_707_12787)">
<path d="M3.93125 1.23398L3.73438 1.625H1.10938C0.625391 1.625 0.234375 2.01602 0.234375 2.5C0.234375 2.98398 0.625391 3.375 1.10938 3.375H11.6094C12.0934 3.375 12.4844 2.98398 12.4844 2.5C12.4844 2.01602 12.0934 1.625 11.6094 1.625H8.98438L8.7875 1.23398C8.63984 0.935938 8.33633 0.75 8.00547 0.75H4.71328C4.38242 0.75 4.07891 0.935938 3.93125 1.23398ZM11.6094 4.25H1.10938L1.68906 13.5195C1.73281 14.2113 2.30703 14.75 2.99883 14.75H9.71992C10.4117 14.75 10.9859 14.2113 11.0297 13.5195L11.6094 4.25Z" fill="#EF4444"/>
</g>
<defs>
<clipPath id="clip0_707_12787">
<path d="M0.234375 0.75H12.4844V14.75H0.234375V0.75Z" fill="white"/>
</clipPath>
</defs>
</svg>
