<svg width="15" height="15" viewBox="0 0 15 15" fill="none" xmlns="http://www.w3.org/2000/svg">
<g clip-path="url(#clip0_707_12782)">
<path d="M13.1297 1.34341C12.5309 0.74458 11.5629 0.74458 10.9641 1.34341L10.141 2.16372L12.818 4.84067L13.641 4.01763C14.2398 3.4188 14.2398 2.45083 13.641 1.852L13.1297 1.34341ZM4.94844 7.35903C4.78164 7.52583 4.65312 7.73091 4.5793 7.95786L3.76992 10.386C3.69062 10.6211 3.75352 10.8809 3.92852 11.0586C4.10352 11.2364 4.36328 11.2965 4.60117 11.2172L7.0293 10.4079C7.25352 10.334 7.45859 10.2055 7.62812 10.0387L12.2027 5.46138L9.52305 2.78169L4.94844 7.35903ZM2.85937 2.50005C1.41016 2.50005 0.234375 3.67583 0.234375 5.12505V12.125C0.234375 13.5743 1.41016 14.75 2.85937 14.75H9.85937C11.3086 14.75 12.4844 13.5743 12.4844 12.125V9.50005C12.4844 9.01606 12.0934 8.62505 11.6094 8.62505C11.1254 8.62505 10.7344 9.01606 10.7344 9.50005V12.125C10.7344 12.609 10.3434 13 9.85937 13H2.85937C2.37539 13 1.98437 12.609 1.98437 12.125V5.12505C1.98437 4.64106 2.37539 4.25005 2.85937 4.25005H5.48437C5.96836 4.25005 6.35937 3.85903 6.35937 3.37505C6.35937 2.89106 5.96836 2.50005 5.48437 2.50005H2.85937Z" fill="#4B5563"/>
</g>
<defs>
<clipPath id="clip0_707_12782">
<path d="M0.234375 0.75H14.2344V14.75H0.234375V0.75Z" fill="white"/>
</clipPath>
</defs>
</svg>
