<svg width="15" height="15" viewBox="0 0 15 15" fill="none" xmlns="http://www.w3.org/2000/svg">
<g clip-path="url(#clip0_707_12717)">
<path d="M8.375 1.625C8.375 1.14102 7.98398 0.75 7.5 0.75C7.01602 0.75 6.625 1.14102 6.625 1.625V8.26133L4.61797 6.2543C4.27617 5.9125 3.72109 5.9125 3.3793 6.2543C3.0375 6.59609 3.0375 7.15117 3.3793 7.49297L6.8793 10.993C7.22109 11.3348 7.77617 11.3348 8.11797 10.993L11.618 7.49297C11.9598 7.15117 11.9598 6.59609 11.618 6.2543C11.2762 5.9125 10.7211 5.9125 10.3793 6.2543L8.375 8.26133V1.625ZM2.25 10.375C1.28477 10.375 0.5 11.1598 0.5 12.125V13C0.5 13.9652 1.28477 14.75 2.25 14.75H12.75C13.7152 14.75 14.5 13.9652 14.5 13V12.125C14.5 11.1598 13.7152 10.375 12.75 10.375H9.97461L8.73594 11.6137C8.05234 12.2973 6.94492 12.2973 6.26133 11.6137L5.02539 10.375H2.25ZM12.3125 11.9062C12.4865 11.9062 12.6535 11.9754 12.7765 12.0985C12.8996 12.2215 12.9688 12.3885 12.9688 12.5625C12.9688 12.7365 12.8996 12.9035 12.7765 13.0265C12.6535 13.1496 12.4865 13.2188 12.3125 13.2188C12.1385 13.2188 11.9715 13.1496 11.8485 13.0265C11.7254 12.9035 11.6562 12.7365 11.6562 12.5625C11.6562 12.3885 11.7254 12.2215 11.8485 12.0985C11.9715 11.9754 12.1385 11.9062 12.3125 11.9062Z" fill="white"/>
</g>
<defs>
<clipPath id="clip0_707_12717">
<path d="M0.5 0.75H14.5V14.75H0.5V0.75Z" fill="white"/>
</clipPath>
</defs>
</svg>
