<svg width="17" height="15" viewBox="0 0 17 15" fill="none" xmlns="http://www.w3.org/2000/svg">
<g clip-path="url(#clip0_707_12777)">
<path d="M8.35869 1.625C6.14932 1.625 4.38018 2.63125 3.09229 3.82891C1.8126 5.01562 0.956738 6.4375 0.552051 7.41367C0.461816 7.62969 0.461816 7.87031 0.552051 8.08633C0.956738 9.0625 1.8126 10.4844 3.09229 11.6711C4.38018 12.8687 6.14932 13.875 8.35869 13.875C10.5681 13.875 12.3372 12.8687 13.6251 11.6711C14.9048 10.4816 15.7606 9.0625 16.1681 8.08633C16.2583 7.87031 16.2583 7.62969 16.1681 7.41367C15.7606 6.4375 14.9048 5.01562 13.6251 3.82891C12.3372 2.63125 10.5681 1.625 8.35869 1.625ZM4.42119 7.75C4.42119 6.70571 4.83603 5.70419 5.57446 4.96577C6.31288 4.22734 7.3144 3.8125 8.35869 3.8125C9.40298 3.8125 10.4045 4.22734 11.1429 4.96577C11.8813 5.70419 12.2962 6.70571 12.2962 7.75C12.2962 8.79429 11.8813 9.79581 11.1429 10.5342C10.4045 11.2727 9.40298 11.6875 8.35869 11.6875C7.3144 11.6875 6.31288 11.2727 5.57446 10.5342C4.83603 9.79581 4.42119 8.79429 4.42119 7.75ZM8.35869 6C8.35869 6.96523 7.57393 7.75 6.60869 7.75C6.41455 7.75 6.22861 7.71719 6.05361 7.65977C5.90322 7.61055 5.72822 7.70352 5.73369 7.86211C5.74189 8.05078 5.76924 8.23945 5.82119 8.42812C6.1958 9.82812 7.63682 10.6594 9.03682 10.2848C10.4368 9.91016 11.2681 8.46914 10.8935 7.06914C10.5899 5.93438 9.58643 5.17148 8.4708 5.125C8.31221 5.11953 8.21924 5.2918 8.26846 5.44492C8.32588 5.61992 8.35869 5.80586 8.35869 6Z" fill="#1E6FFB"/>
</g>
<defs>
<clipPath id="clip0_707_12777">
<path d="M0.484375 0.75H16.2344V14.75H0.484375V0.75Z" fill="white"/>
</clipPath>
</defs>
</svg>
