<svg width="15" height="16" viewBox="0 0 15 16" fill="none" xmlns="http://www.w3.org/2000/svg">
<g clip-path="url(#clip0_1_9598)">
<path d="M8.76562 2.5C8.76562 1.94687 8.31875 1.5 7.76562 1.5C7.2125 1.5 6.76562 1.94687 6.76562 2.5V7H2.26562C1.7125 7 1.26562 7.44688 1.26562 8C1.26562 8.55312 1.7125 9 2.26562 9H6.76562V13.5C6.76562 14.0531 7.2125 14.5 7.76562 14.5C8.31875 14.5 8.76562 14.0531 8.76562 13.5V9H13.2656C13.8188 9 14.2656 8.55312 14.2656 8C14.2656 7.44688 13.8188 7 13.2656 7H8.76562V2.5Z" fill="white"/>
</g>
<defs>
<clipPath id="clip0_1_9598">
<path d="M0.765625 0H14.7656V16H0.765625V0Z" fill="white"/>
</clipPath>
</defs>
</svg>
