<svg width="14" height="15" viewBox="0 0 14 15" fill="none" xmlns="http://www.w3.org/2000/svg">
<g clip-path="url(#clip0_707_12740)">
<path d="M11.375 6.4375C11.375 7.69258 10.9676 8.85195 10.2812 9.79258L13.743 13.257C14.0848 13.5988 14.0848 14.1539 13.743 14.4957C13.4012 14.8375 12.8461 14.8375 12.5043 14.4957L9.04258 11.0312C8.10195 11.7203 6.94258 12.125 5.6875 12.125C2.5457 12.125 0 9.5793 0 6.4375C0 3.2957 2.5457 0.75 5.6875 0.75C8.8293 0.75 11.375 3.2957 11.375 6.4375ZM5.6875 10.375C6.20458 10.375 6.7166 10.2732 7.19432 10.0753C7.67204 9.8774 8.1061 9.58736 8.47173 9.22173C8.83736 8.8561 9.1274 8.42204 9.32528 7.94432C9.52315 7.4666 9.625 6.95458 9.625 6.4375C9.625 5.92042 9.52315 5.4084 9.32528 4.93068C9.1274 4.45296 8.83736 4.0189 8.47173 3.65327C8.1061 3.28764 7.67204 2.9976 7.19432 2.79972C6.7166 2.60185 6.20458 2.5 5.6875 2.5C5.17042 2.5 4.6584 2.60185 4.18068 2.79972C3.70296 2.9976 3.2689 3.28764 2.90327 3.65327C2.53764 4.0189 2.2476 4.45296 2.04972 4.93068C1.85185 5.4084 1.75 5.92042 1.75 6.4375C1.75 6.95458 1.85185 7.4666 2.04972 7.94432C2.2476 8.42204 2.53764 8.8561 2.90327 9.22173C3.2689 9.58736 3.70296 9.8774 4.18068 10.0753C4.6584 10.2732 5.17042 10.375 5.6875 10.375Z" fill="#9CA3AF"/>
</g>
<defs>
<clipPath id="clip0_707_12740">
<path d="M0 0.75H14V14.75H0V0.75Z" fill="white"/>
</clipPath>
</defs>
</svg>
