<svg width="17" height="19" viewBox="0 0 17 19" fill="none" xmlns="http://www.w3.org/2000/svg">
<g clip-path="url(#clip0_1_1947)">
<path d="M4.95312 0.25C5.57539 0.25 6.07812 0.752734 6.07812 1.375V2.5H10.5781V1.375C10.5781 0.752734 11.0809 0.25 11.7031 0.25C12.3254 0.25 12.8281 0.752734 12.8281 1.375V2.5H14.5156C15.4473 2.5 16.2031 3.25586 16.2031 4.1875V5.875H0.453125V4.1875C0.453125 3.25586 1.20898 2.5 2.14062 2.5H3.82812V1.375C3.82812 0.752734 4.33086 0.25 4.95312 0.25ZM0.453125 7H16.2031V16.5625C16.2031 17.4941 15.4473 18.25 14.5156 18.25H2.14062C1.20898 18.25 0.453125 17.4941 0.453125 16.5625V7ZM2.70312 9.8125V10.9375C2.70312 11.2469 2.95625 11.5 3.26562 11.5H4.39062C4.7 11.5 4.95312 11.2469 4.95312 10.9375V9.8125C4.95312 9.50313 4.7 9.25 4.39062 9.25H3.26562C2.95625 9.25 2.70312 9.50313 2.70312 9.8125ZM7.20312 9.8125V10.9375C7.20312 11.2469 7.45625 11.5 7.76562 11.5H8.89062C9.2 11.5 9.45312 11.2469 9.45312 10.9375V9.8125C9.45312 9.50313 9.2 9.25 8.89062 9.25H7.76562C7.45625 9.25 7.20312 9.50313 7.20312 9.8125ZM12.2656 9.25C11.9563 9.25 11.7031 9.50313 11.7031 9.8125V10.9375C11.7031 11.2469 11.9563 11.5 12.2656 11.5H13.3906C13.7 11.5 13.9531 11.2469 13.9531 10.9375V9.8125C13.9531 9.50313 13.7 9.25 13.3906 9.25H12.2656ZM2.70312 14.3125V15.4375C2.70312 15.7469 2.95625 16 3.26562 16H4.39062C4.7 16 4.95312 15.7469 4.95312 15.4375V14.3125C4.95312 14.0031 4.7 13.75 4.39062 13.75H3.26562C2.95625 13.75 2.70312 14.0031 2.70312 14.3125ZM7.76562 13.75C7.45625 13.75 7.20312 14.0031 7.20312 14.3125V15.4375C7.20312 15.7469 7.45625 16 7.76562 16H8.89062C9.2 16 9.45312 15.7469 9.45312 15.4375V14.3125C9.45312 14.0031 9.2 13.75 8.89062 13.75H7.76562ZM11.7031 14.3125V15.4375C11.7031 15.7469 11.9563 16 12.2656 16H13.3906C13.7 16 13.9531 15.7469 13.9531 15.4375V14.3125C13.9531 14.0031 13.7 13.75 13.3906 13.75H12.2656C11.9563 13.75 11.7031 14.0031 11.7031 14.3125Z" fill="#16A34A"/>
</g>
<defs>
<clipPath id="clip0_1_1947">
<path d="M0.453125 0.25H16.2031V18.25H0.453125V0.25Z" fill="white"/>
</clipPath>
</defs>
</svg>
