<svg width="17" height="15" viewBox="0 0 17 15" fill="none" xmlns="http://www.w3.org/2000/svg">
<g clip-path="url(#clip0_1_2048)">
<path d="M6.4375 2.9375C6.4375 2.21289 7.02539 1.625 7.75 1.625H9.5C10.2246 1.625 10.8125 2.21289 10.8125 2.9375V4.6875C10.8125 5.41211 10.2246 6 9.5 6H9.28125V7.09375H13.4375C14.2824 7.09375 14.9688 7.78008 14.9688 8.625V9.5H15.1875C15.9121 9.5 16.5 10.0879 16.5 10.8125V12.5625C16.5 13.2871 15.9121 13.875 15.1875 13.875H13.4375C12.7129 13.875 12.125 13.2871 12.125 12.5625V10.8125C12.125 10.0879 12.7129 9.5 13.4375 9.5H13.6562V8.625C13.6562 8.50469 13.5578 8.40625 13.4375 8.40625H9.28125V9.5H9.5C10.2246 9.5 10.8125 10.0879 10.8125 10.8125V12.5625C10.8125 13.2871 10.2246 13.875 9.5 13.875H7.75C7.02539 13.875 6.4375 13.2871 6.4375 12.5625V10.8125C6.4375 10.0879 7.02539 9.5 7.75 9.5H7.96875V8.40625H3.8125C3.69219 8.40625 3.59375 8.50469 3.59375 8.625V9.5H3.8125C4.53711 9.5 5.125 10.0879 5.125 10.8125V12.5625C5.125 13.2871 4.53711 13.875 3.8125 13.875H2.0625C1.33789 13.875 0.75 13.2871 0.75 12.5625V10.8125C0.75 10.0879 1.33789 9.5 2.0625 9.5H2.28125V8.625C2.28125 7.78008 2.96758 7.09375 3.8125 7.09375H7.96875V6H7.75C7.02539 6 6.4375 5.41211 6.4375 4.6875V2.9375Z" fill="#0A6ED1"/>
</g>
<defs>
<clipPath id="clip0_1_2048">
<path d="M0.75 0.75H16.5V14.75H0.75V0.75Z" fill="white"/>
</clipPath>
</defs>
</svg>
