<svg width="15" height="15" viewBox="0 0 15 15" fill="none" xmlns="http://www.w3.org/2000/svg">
<g clip-path="url(#clip0_1_2033)">
<path d="M9.82812 10.375C12.4859 10.375 14.6406 8.22031 14.6406 5.5625C14.6406 2.90469 12.4859 0.75 9.82812 0.75C7.17031 0.75 5.01562 2.90469 5.01562 5.5625C5.01562 6.07383 5.09492 6.56875 5.24258 7.03086L0.832031 11.4414C0.708984 11.5645 0.640625 11.7312 0.640625 11.9062V14.0938C0.640625 14.4574 0.933203 14.75 1.29688 14.75H3.48438C3.84805 14.75 4.14062 14.4574 4.14062 14.0938V13H5.23438C5.59805 13 5.89062 12.7074 5.89062 12.3438V11.25H6.98438C7.15938 11.25 7.32617 11.1816 7.44922 11.0586L8.35977 10.148C8.82187 10.2957 9.3168 10.375 9.82812 10.375ZM10.9219 3.375C11.212 3.375 11.4902 3.49023 11.6953 3.69535C11.9004 3.90047 12.0156 4.17867 12.0156 4.46875C12.0156 4.75883 11.9004 5.03703 11.6953 5.24215C11.4902 5.44727 11.212 5.5625 10.9219 5.5625C10.6318 5.5625 10.3536 5.44727 10.1485 5.24215C9.94336 5.03703 9.82812 4.75883 9.82812 4.46875C9.82812 4.17867 9.94336 3.90047 10.1485 3.69535C10.3536 3.49023 10.6318 3.375 10.9219 3.375Z" fill="#0A6ED1"/>
</g>
<defs>
<clipPath id="clip0_1_2033">
<path d="M0.640625 0.75H14.6406V14.75H0.640625V0.75Z" fill="white"/>
</clipPath>
</defs>
</svg>
