<svg width="18" height="19" viewBox="0 0 18 19" fill="none" xmlns="http://www.w3.org/2000/svg">
<g clip-path="url(#clip0_1_1933)">
<path d="M0 1.375C0 0.752734 0.502734 0.25 1.125 0.25H16.875C17.4973 0.25 18 0.752734 18 1.375C18 1.99727 17.4973 2.5 16.875 2.5V16C17.4973 16 18 16.5027 18 17.125C18 17.7473 17.4973 18.25 16.875 18.25H10.6875V16.5625C10.6875 15.6309 9.93164 14.875 9 14.875C8.06836 14.875 7.3125 15.6309 7.3125 16.5625V18.25H1.125C0.502734 18.25 0 17.7473 0 17.125C0 16.5027 0.502734 16 1.125 16V2.5C0.502734 2.5 0 1.99727 0 1.375ZM3.375 4.1875V5.3125C3.375 5.62187 3.62812 5.875 3.9375 5.875H5.0625C5.37187 5.875 5.625 5.62187 5.625 5.3125V4.1875C5.625 3.87812 5.37187 3.625 5.0625 3.625H3.9375C3.62812 3.625 3.375 3.87812 3.375 4.1875ZM8.4375 3.625C8.12813 3.625 7.875 3.87812 7.875 4.1875V5.3125C7.875 5.62187 8.12813 5.875 8.4375 5.875H9.5625C9.87187 5.875 10.125 5.62187 10.125 5.3125V4.1875C10.125 3.87812 9.87187 3.625 9.5625 3.625H8.4375ZM12.375 4.1875V5.3125C12.375 5.62187 12.6281 5.875 12.9375 5.875H14.0625C14.3719 5.875 14.625 5.62187 14.625 5.3125V4.1875C14.625 3.87812 14.3719 3.625 14.0625 3.625H12.9375C12.6281 3.625 12.375 3.87812 12.375 4.1875ZM3.9375 7C3.62812 7 3.375 7.25313 3.375 7.5625V8.6875C3.375 8.99687 3.62812 9.25 3.9375 9.25H5.0625C5.37187 9.25 5.625 8.99687 5.625 8.6875V7.5625C5.625 7.25313 5.37187 7 5.0625 7H3.9375ZM7.875 7.5625V8.6875C7.875 8.99687 8.12813 9.25 8.4375 9.25H9.5625C9.87187 9.25 10.125 8.99687 10.125 8.6875V7.5625C10.125 7.25313 9.87187 7 9.5625 7H8.4375C8.12813 7 7.875 7.25313 7.875 7.5625ZM12.9375 7C12.6281 7 12.375 7.25313 12.375 7.5625V8.6875C12.375 8.99687 12.6281 9.25 12.9375 9.25H14.0625C14.3719 9.25 14.625 8.99687 14.625 8.6875V7.5625C14.625 7.25313 14.3719 7 14.0625 7H12.9375ZM11.5312 13.75C11.9988 13.75 12.3855 13.3668 12.2695 12.9133C11.8969 11.4543 10.575 10.375 9 10.375C7.425 10.375 6.09961 11.4543 5.73047 12.9133C5.61445 13.3633 6.00469 13.75 6.46875 13.75H11.5312Z" fill="#2563EB"/>
</g>
<defs>
<clipPath id="clip0_1_1933">
<path d="M0 0.25H18V18.25H0V0.25Z" fill="white"/>
</clipPath>
</defs>
</svg>
