<svg width="12" height="16" viewBox="0 0 12 16" fill="none" xmlns="http://www.w3.org/2000/svg">
<g clip-path="url(#clip0_1_2091)">
<path d="M3.48111 9.24678C3.37174 9.84678 2.93736 12.6437 2.80924 13.4343C2.79986 13.4905 2.77799 13.5124 2.71549 13.5124H0.384237C0.146737 13.5124 -0.0251377 13.3062 0.00611234 13.078L1.83736 1.45616C1.88424 1.15616 2.15299 0.928034 2.46236 0.928034C7.22174 0.928034 7.62174 0.812409 8.83736 1.28428C10.7155 2.01241 10.8874 3.76866 10.2124 5.66866C9.54049 7.62491 7.94674 8.46553 5.83424 8.49053C4.47799 8.51241 3.66236 8.27178 3.48111 9.24678ZM11.1592 4.74991C11.103 4.70928 11.0811 4.69366 11.0655 4.79053C11.003 5.14678 10.9061 5.49366 10.7905 5.84053C9.54361 9.39678 6.08736 9.08741 4.39986 9.08741C4.20924 9.08741 4.08424 9.19053 4.05924 9.38116C3.35299 13.7687 3.21236 14.6843 3.21236 14.6843C3.18111 14.9062 3.32174 15.0874 3.54361 15.0874H5.52799C5.79674 15.0874 6.01861 14.8905 6.07174 14.6218C6.09361 14.453 6.03736 14.8124 6.52174 11.7687C6.66549 11.0812 6.96861 11.153 7.43736 11.153C9.65611 11.153 11.3874 10.253 11.903 7.64366C12.1061 6.55616 12.0467 5.41241 11.1592 4.74991Z" fill="#CA8A04"/>
</g>
<defs>
<clipPath id="clip0_1_2091">
<path d="M0 0H12V16H0V0Z" fill="white"/>
</clipPath>
</defs>
</svg>
