<svg width="15" height="16" viewBox="0 0 15 16" fill="none" xmlns="http://www.w3.org/2000/svg">
<g clip-path="url(#clip0_1_1520)">
<path d="M8.17188 2.5C8.17188 1.94687 7.725 1.5 7.17188 1.5C6.61875 1.5 6.17188 1.94687 6.17188 2.5V7H1.67188C1.11875 7 0.671875 7.44688 0.671875 8C0.671875 8.55312 1.11875 9 1.67188 9H6.17188V13.5C6.17188 14.0531 6.61875 14.5 7.17188 14.5C7.725 14.5 8.17188 14.0531 8.17188 13.5V9H12.6719C13.225 9 13.6719 8.55312 13.6719 8C13.6719 7.44688 13.225 7 12.6719 7H8.17188V2.5Z" fill="white"/>
</g>
<defs>
<clipPath id="clip0_1_1520">
<path d="M0.171875 0H14.1719V16H0.171875V0Z" fill="white"/>
</clipPath>
</defs>
</svg>
