<svg width="17" height="16" viewBox="0 0 17 16" fill="none" xmlns="http://www.w3.org/2000/svg">
<g clip-path="url(#clip0_1_1517)">
<path d="M13.9062 6.5C13.9062 7.93437 13.4406 9.25938 12.6562 10.3344L16.6125 14.2937C17.0031 14.6844 17.0031 15.3188 16.6125 15.7094C16.2219 16.1 15.5875 16.1 15.1969 15.7094L11.2406 11.75C10.1656 12.5375 8.84062 13 7.40625 13C3.81562 13 0.90625 10.0906 0.90625 6.5C0.90625 2.90937 3.81562 0 7.40625 0C10.9969 0 13.9062 2.90937 13.9062 6.5ZM7.40625 11C7.9972 11 8.58236 10.8836 9.12833 10.6575C9.67429 10.4313 10.1704 10.0998 10.5882 9.68198C11.0061 9.26412 11.3376 8.76804 11.5637 8.22208C11.7899 7.67611 11.9062 7.09095 11.9062 6.5C11.9062 5.90905 11.7899 5.32389 11.5637 4.77792C11.3376 4.23196 11.0061 3.73588 10.5882 3.31802C10.1704 2.90016 9.67429 2.56869 9.12833 2.34254C8.58236 2.1164 7.9972 2 7.40625 2C6.8153 2 6.23014 2.1164 5.68417 2.34254C5.13821 2.56869 4.64213 2.90016 4.22427 3.31802C3.80641 3.73588 3.47494 4.23196 3.24879 4.77792C3.02265 5.32389 2.90625 5.90905 2.90625 6.5C2.90625 7.09095 3.02265 7.67611 3.24879 8.22208C3.47494 8.76804 3.80641 9.26412 4.22427 9.68198C4.64213 10.0998 5.13821 10.4313 5.68417 10.6575C6.23014 10.8836 6.8153 11 7.40625 11Z" fill="#9CA3AF"/>
</g>
<defs>
<clipPath id="clip0_1_1517">
<path d="M0.90625 0H16.9062V16H0.90625V0Z" fill="white"/>
</clipPath>
</defs>
</svg>
