<svg width="16" height="16" viewBox="0 0 16 16" fill="none" xmlns="http://www.w3.org/2000/svg">
<g clip-path="url(#clip0_1_2077)">
<path d="M7.99967 14C12.4184 14 15.9997 11.0906 15.9997 7.5C15.9997 3.90937 12.4184 1 7.99967 1C3.58092 1 -0.00032957 3.90937 -0.00032957 7.5C-0.00032957 8.90938 0.552795 10.2125 1.4903 11.2781C1.43092 12.0437 1.13405 12.725 0.821545 13.2437C0.64967 13.5312 0.47467 13.7625 0.346545 13.9187C0.28092 13.9969 0.23092 14.0563 0.19342 14.0969C0.17467 14.1156 0.16217 14.1313 0.152795 14.1406L0.14342 14.15C-0.000329569 14.2937 -0.0409546 14.5063 0.0371704 14.6938C0.115295 14.8813 0.296545 15.0031 0.49967 15.0031C1.39655 15.0031 2.29967 14.725 3.04967 14.4C3.7653 14.0875 4.37467 13.7156 4.74655 13.4438C5.7403 13.8031 6.84029 14.0031 7.99967 14.0031V14ZM6.3403 5.525C6.54342 5.45625 6.76842 5.52812 6.89967 5.7L7.99967 7.16563L9.09967 5.7C9.2278 5.52812 9.4528 5.45625 9.65905 5.525C9.8653 5.59375 9.99967 5.78438 9.99967 6V9C9.99967 9.275 9.77467 9.5 9.49967 9.5C9.22467 9.5 8.99967 9.275 8.99967 9V7.5L8.39967 8.3C8.30592 8.425 8.15592 8.5 7.99967 8.5C7.84342 8.5 7.69342 8.425 7.59967 8.3L6.99967 7.5V9C6.99967 9.275 6.77467 9.5 6.49967 9.5C6.22467 9.5 5.99967 9.275 5.99967 9V6C5.99967 5.78438 6.13717 5.59375 6.3403 5.525ZM11.7497 6.7125C11.7497 6.71875 11.7497 6.725 11.7497 6.725C11.7528 6.72813 11.7684 6.75 11.8184 6.77812C11.9403 6.85 12.1184 6.90625 12.3903 6.99062L12.409 6.99687C12.6403 7.06562 12.9497 7.15938 13.1965 7.31563C13.4809 7.49375 13.7403 7.79063 13.7465 8.25C13.7528 8.71875 13.509 9.0625 13.1903 9.25937C12.8934 9.44375 12.5372 9.50625 12.2309 9.49687C11.8497 9.48438 11.4903 9.35938 11.2122 9.26562C11.1684 9.25 11.1278 9.2375 11.0872 9.22188C10.8247 9.13438 10.684 8.85 10.7715 8.59062C10.859 8.33125 11.1434 8.1875 11.4028 8.275C11.4559 8.29375 11.5059 8.30937 11.5559 8.325C11.8403 8.42188 12.0434 8.49062 12.2622 8.49687C12.4278 8.50312 12.5747 8.46563 12.6622 8.40938C12.6997 8.38438 12.7184 8.3625 12.7278 8.34688C12.734 8.33438 12.7465 8.30937 12.7465 8.2625V8.25625C12.7465 8.23438 12.7465 8.2125 12.6622 8.15938C12.5434 8.08438 12.3622 8.025 12.0997 7.94375L12.0622 7.93125C11.8372 7.8625 11.5403 7.775 11.3028 7.63125C11.0215 7.4625 10.7497 7.17188 10.7497 6.7125C10.7465 6.2375 11.0184 5.90937 11.3278 5.725C11.6215 5.55312 11.9684 5.49062 12.2559 5.49375C12.5684 5.5 12.8715 5.56562 13.1278 5.63125C13.3934 5.70312 13.5528 5.975 13.4809 6.24375C13.409 6.5125 13.1372 6.66875 12.8684 6.59688C12.6403 6.5375 12.4278 6.49375 12.2403 6.49062C12.0872 6.4875 11.934 6.525 11.8372 6.58125C11.7934 6.60625 11.7715 6.63125 11.7622 6.64375C11.7559 6.65313 11.7497 6.66875 11.7497 6.70312V6.7125ZM3.24967 6.7125C3.24967 6.71875 3.24967 6.725 3.24967 6.725C3.2528 6.72813 3.26842 6.75 3.31842 6.77812C3.4403 6.85 3.61842 6.90625 3.8903 6.99062L3.90905 6.99687C4.1403 7.06562 4.44967 7.15938 4.69655 7.31563C4.98092 7.49375 5.2403 7.79063 5.24655 8.25C5.2528 8.71875 5.00905 9.0625 4.6903 9.25937C4.39342 9.44375 4.03717 9.50625 3.73092 9.49687C3.34655 9.48438 2.97467 9.35625 2.69342 9.25937C2.6528 9.24687 2.6153 9.23438 2.58092 9.22188C2.31842 9.13438 2.1778 8.85 2.2653 8.59062C2.3528 8.33125 2.63717 8.1875 2.89655 8.275C2.9403 8.29062 2.98405 8.30313 3.02467 8.31875C3.32155 8.41875 3.5403 8.49375 3.7653 8.5C3.93092 8.50625 4.0778 8.46875 4.1653 8.4125C4.2028 8.3875 4.22155 8.36563 4.23092 8.35C4.23717 8.3375 4.24967 8.3125 4.24967 8.26562V8.25937C4.24967 8.2375 4.24967 8.21563 4.1653 8.1625C4.04655 8.0875 3.8653 8.02813 3.6028 7.94688L3.5653 7.93437C3.3403 7.86562 3.04342 7.77813 2.80592 7.63438C2.52467 7.46875 2.2528 7.17812 2.24967 6.71875C2.24655 6.24375 2.51842 5.91562 2.8278 5.73125C3.12155 5.55937 3.46842 5.49687 3.75592 5.5C4.0528 5.50313 4.44967 5.56562 4.7278 5.6375C4.99342 5.70937 5.1528 5.98125 5.08092 6.25C5.00905 6.51875 4.73717 6.675 4.46842 6.60313C4.26217 6.54688 3.94342 6.5 3.7403 6.49687C3.58717 6.49375 3.43405 6.53125 3.33717 6.5875C3.29342 6.6125 3.27155 6.6375 3.26217 6.65C3.25592 6.65938 3.24967 6.675 3.24967 6.70937V6.7125Z" fill="#9333EA"/>
</g>
<defs>
<clipPath id="clip0_1_2077">
<path d="M0 0H16V16H0V0Z" fill="white"/>
</clipPath>
</defs>
</svg>
