<svg width="20" height="16" viewBox="0 0 20 16" fill="none" xmlns="http://www.w3.org/2000/svg">
<path d="M20 16H0V0H20V16Z" stroke="#E5E7EB"/>
<path d="M5.15605 4.52187L3.80293 4.80937L3.79668 9.25937C3.79668 10.0812 4.41543 10.6125 5.2373 10.6125C5.69355 10.6125 6.02793 10.5281 6.2123 10.4281V9.37187C6.03418 9.44375 5.15918 9.7 5.15918 8.88125V6.90625H6.2123V5.725H5.15918L5.15605 4.52187ZM7.94043 6.13438L7.85605 5.725H6.65605V10.5125H8.04043V7.29063C8.36855 6.85938 8.92168 6.94375 9.0998 7V5.725C8.9123 5.65937 8.26543 5.5375 7.94043 6.13438ZM10.8248 3.875L9.43105 4.17188V5.30312L10.8248 5.00625V3.875ZM1.40293 7.13438C1.40293 6.91875 1.58418 6.83438 1.8748 6.83125C2.29668 6.83125 2.83418 6.95937 3.25605 7.1875V5.88125C2.79668 5.7 2.3373 5.62813 1.87793 5.62813C0.75293 5.62813 0.00292969 6.21563 0.00292969 7.19688C0.00292969 8.73438 2.1123 8.48438 2.1123 9.14688C2.1123 9.40313 1.89043 9.4875 1.58105 9.4875C1.12168 9.4875 0.52793 9.29688 0.0623047 9.04375V10.2937C0.57793 10.5156 1.0998 10.6094 1.57793 10.6094C2.73105 10.6094 3.5248 10.1156 3.5248 9.11563C3.5248 7.4625 1.40293 7.75938 1.40293 7.13438ZM19.9998 8.175C19.9998 6.75313 19.3123 5.63125 17.9936 5.63125C16.6748 5.63125 15.8717 6.75312 15.8717 8.16562C15.8717 9.8375 16.8186 10.6094 18.1686 10.6094C18.8311 10.6094 19.3279 10.4594 19.7061 10.25V9.20625C19.3279 9.39688 18.8936 9.5125 18.3436 9.5125C17.8029 9.5125 17.3279 9.32188 17.2654 8.67188H19.9811C19.9873 8.6 19.9998 8.30938 19.9998 8.175ZM17.2529 7.65C17.2529 7.025 17.6373 6.7625 17.9842 6.7625C18.3248 6.7625 18.6873 7.025 18.6873 7.65H17.2529ZM13.7248 5.63125C13.1811 5.63125 12.8311 5.8875 12.6373 6.06563L12.5654 5.72188H11.3436V12.1219L12.7311 11.8281L12.7342 10.2594C12.9342 10.4062 13.2311 10.6094 13.7154 10.6094C14.7092 10.6094 15.6154 9.88437 15.6154 8.12187C15.6186 6.50937 14.6998 5.63125 13.7248 5.63125ZM13.3936 9.45938C13.0686 9.45938 12.8748 9.34062 12.7404 9.19687L12.7311 7.13438C12.8748 6.975 13.0748 6.85938 13.3936 6.85938C13.8998 6.85938 14.2498 7.42812 14.2498 8.15312C14.2529 8.9 13.9092 9.45938 13.3936 9.45938ZM9.43418 10.5125H10.8279V5.725H9.43418V10.5125Z" fill="#2563EB"/>
</svg>
