<svg width="15" height="16" viewBox="0 0 15 16" fill="none" xmlns="http://www.w3.org/2000/svg">
<g clip-path="url(#clip0_1_1800)">
<path d="M0.90625 8C0.90625 7.53587 1.09062 7.09075 1.41881 6.76256C1.747 6.43437 2.19212 6.25 2.65625 6.25C3.12038 6.25 3.5655 6.43437 3.89369 6.76256C4.22188 7.09075 4.40625 7.53587 4.40625 8C4.40625 8.46413 4.22188 8.90925 3.89369 9.23744C3.5655 9.56563 3.12038 9.75 2.65625 9.75C2.19212 9.75 1.747 9.56563 1.41881 9.23744C1.09062 8.90925 0.90625 8.46413 0.90625 8ZM5.90625 8C5.90625 7.53587 6.09062 7.09075 6.41881 6.76256C6.747 6.43437 7.19212 6.25 7.65625 6.25C8.12038 6.25 8.5655 6.43437 8.89369 6.76256C9.22188 7.09075 9.40625 7.53587 9.40625 8C9.40625 8.46413 9.22188 8.90925 8.89369 9.23744C8.5655 9.56563 8.12038 9.75 7.65625 9.75C7.19212 9.75 6.747 9.56563 6.41881 9.23744C6.09062 8.90925 5.90625 8.46413 5.90625 8ZM12.6562 6.25C13.1204 6.25 13.5655 6.43437 13.8937 6.76256C14.2219 7.09075 14.4062 7.53587 14.4062 8C14.4062 8.46413 14.2219 8.90925 13.8937 9.23744C13.5655 9.56563 13.1204 9.75 12.6562 9.75C12.1921 9.75 11.747 9.56563 11.4188 9.23744C11.0906 8.90925 10.9062 8.46413 10.9062 8C10.9062 7.53587 11.0906 7.09075 11.4188 6.76256C11.747 6.43437 12.1921 6.25 12.6562 6.25Z" fill="#4B5563"/>
</g>
<defs>
<clipPath id="clip0_1_1800">
<path d="M0.65625 0H14.6562V16H0.65625V0Z" fill="white"/>
</clipPath>
</defs>
</svg>
