<svg width="12" height="16" viewBox="0 0 12 16" fill="none" xmlns="http://www.w3.org/2000/svg">
<g clip-path="url(#clip0_1_1954)">
<path d="M1.34047 7.50981L4.45359 9.02888C5.05359 9.32263 4.95984 10.2011 4.31297 10.3636L0.952967 11.2014C0.854335 11.2262 0.751534 11.2296 0.651481 11.2113C0.551429 11.1931 0.456446 11.1536 0.372923 11.0956C0.2894 11.0375 0.219275 10.9623 0.167266 10.8749C0.115257 10.7875 0.0825702 10.69 0.071405 10.5889C-0.0316938 9.69026 0.0643293 8.77996 0.352655 7.92263C0.385001 7.82661 0.437454 7.73859 0.506514 7.66445C0.575575 7.59031 0.659654 7.53175 0.753142 7.49268C0.846629 7.45361 0.947374 7.43493 1.04865 7.43788C1.14993 7.44084 1.24942 7.46536 1.34047 7.50981ZM2.71547 14.9864C3.46032 15.4967 4.30714 15.839 5.19734 15.9898C5.29752 16.007 5.40022 16.0025 5.49853 15.9767C5.59684 15.9509 5.68848 15.9044 5.76729 15.8402C5.84611 15.776 5.91026 15.6957 5.95544 15.6046C6.00062 15.5136 6.02577 15.4139 6.02922 15.3123L6.15109 11.8492C6.17297 11.1836 5.35422 10.852 4.90703 11.3461L2.58797 13.9211C2.52006 13.9966 2.46908 14.0858 2.43844 14.1827C2.4078 14.2795 2.39821 14.3818 2.41031 14.4827C2.42241 14.5836 2.45593 14.6807 2.50861 14.7676C2.56129 14.8544 2.63192 14.929 2.71578 14.9864H2.71547ZM7.25734 11.5514L9.09515 14.4889C9.14933 14.5751 9.22126 14.6488 9.30616 14.7051C9.39107 14.7613 9.48699 14.7989 9.58753 14.8151C9.68807 14.8314 9.79093 14.826 9.88924 14.7994C9.98755 14.7728 10.0791 14.7255 10.1577 14.6608C10.8542 14.085 11.4164 13.3639 11.8048 12.5479C11.8477 12.4561 11.8705 12.3562 11.872 12.2549C11.8735 12.1535 11.8535 12.053 11.8134 11.9599C11.7733 11.8668 11.714 11.7833 11.6393 11.7148C11.5647 11.6463 11.4763 11.5943 11.3802 11.5623L8.08578 10.4917C7.45109 10.2886 6.90422 10.9854 7.25734 11.5514ZM11.8927 7.41919C11.5325 6.59058 10.9947 5.85118 10.3173 5.25325C10.2411 5.18646 10.1516 5.13665 10.0546 5.10714C9.95767 5.07763 9.85555 5.06909 9.75505 5.0821C9.65454 5.0951 9.55796 5.12935 9.47171 5.18257C9.38547 5.23579 9.31154 5.30676 9.25484 5.39075L7.31734 8.26325C6.94547 8.81638 7.46422 9.53231 8.10484 9.34794L11.4373 8.3945C11.535 8.36576 11.6255 8.31659 11.7027 8.25025C11.7799 8.18392 11.8422 8.10193 11.8854 8.00972C11.9285 7.9175 11.9516 7.81717 11.9531 7.71537C11.9546 7.61356 11.9344 7.51261 11.8939 7.41919H11.8927ZM1.94078 0.942939C1.85226 0.985543 1.77348 1.04595 1.70936 1.12037C1.64524 1.1948 1.59716 1.28166 1.56812 1.37551C1.53909 1.46936 1.52972 1.56819 1.54061 1.66582C1.5515 1.76345 1.58241 1.85779 1.6314 1.94294L4.88516 7.58169C5.25078 8.21294 6.21672 7.95356 6.21672 7.22544V0.714814C6.2176 0.616426 6.19798 0.518932 6.15911 0.428544C6.12024 0.338156 6.06296 0.256857 5.99093 0.189827C5.91891 0.122797 5.8337 0.0715057 5.74076 0.0392214C5.64781 0.00693712 5.54916 -0.00563221 5.45109 0.00231435C4.2334 0.0990808 3.0437 0.417874 1.94078 0.942939Z" fill="#DC2626"/>
</g>
<defs>
<clipPath id="clip0_1_1954">
<path d="M0 0H12V16H0V0Z" fill="white"/>
</clipPath>
</defs>
</svg>
