<svg width="18" height="15" viewBox="0 0 18 15" fill="none" xmlns="http://www.w3.org/2000/svg">
<g clip-path="url(#clip0_1_12746)">
<path d="M1.32647 0.889607C1.0421 0.665388 0.629206 0.717341 0.404988 1.00172C0.180769 1.28609 0.232722 1.69898 0.517097 1.9232L16.7046 14.6107C16.989 14.8349 17.4019 14.783 17.6261 14.4986C17.8503 14.2142 17.7983 13.8013 17.514 13.5771L9.92608 7.62984C11.419 7.23062 12.5155 5.8689 12.5155 4.25015C12.5155 2.31695 10.9487 0.750154 9.01553 0.750154C7.10694 0.750154 5.55655 2.27593 5.51553 4.17359L1.32647 0.889607ZM7.49249 9.07086C4.92764 9.21031 2.89053 11.3377 2.89053 13.938C2.89053 14.3865 3.25421 14.7502 3.70264 14.7502H14.3284C14.4351 14.7502 14.5362 14.731 14.6292 14.6927L7.49249 9.07086Z" fill="#E74C3C"/>
</g>
<defs>
<clipPath id="clip0_1_12746">
<path d="M0.265625 0.75H17.7656V14.75H0.265625V0.75Z" fill="white"/>
</clipPath>
</defs>
</svg>
