<svg width="8" height="13" viewBox="0 0 8 13" fill="none" xmlns="http://www.w3.org/2000/svg">
<g clip-path="url(#clip0_1_6149)">
<path d="M3.39203 1.47021C3.685 1.17725 4.16078 1.17725 4.45375 1.47021L7.45375 4.47021C7.66937 4.68584 7.73265 5.00693 7.61547 5.28818C7.49828 5.56943 7.2264 5.75225 6.92171 5.75225H0.921715C0.619371 5.75225 0.345152 5.56943 0.227965 5.28818C0.110777 5.00693 0.176402 4.68584 0.389684 4.47021L3.38968 1.47021H3.39203ZM3.39203 11.5319L0.392027 8.53193C0.176402 8.31631 0.113121 7.99521 0.230309 7.71396C0.347496 7.43271 0.619371 7.2499 0.924059 7.2499H6.92171C7.22406 7.2499 7.49828 7.43271 7.61547 7.71396C7.73265 7.99521 7.66703 8.31631 7.45375 8.53193L4.45375 11.5319C4.16078 11.8249 3.685 11.8249 3.39203 11.5319Z" fill="#9CA3AF"/>
</g>
<defs>
<clipPath id="clip0_1_6149">
<path d="M0.171875 0.5H7.67188V12.5H0.171875V0.5Z" fill="white"/>
</clipPath>
</defs>
</svg>
