<svg width="11" height="15" viewBox="0 0 11 15" fill="none" xmlns="http://www.w3.org/2000/svg">
<g clip-path="url(#clip0_643_9591)">
<path d="M5.25 0.75C4.10703 0.75 3.13359 1.48008 2.77539 2.5H1.75C0.784766 2.5 0 3.28477 0 4.25V13C0 13.9652 0.784766 14.75 1.75 14.75H8.75C9.71523 14.75 10.5 13.9652 10.5 13V4.25C10.5 3.28477 9.71523 2.5 8.75 2.5H7.72461C7.36641 1.48008 6.39297 0.75 5.25 0.75ZM5.25 2.5C5.48206 2.5 5.70462 2.59219 5.86872 2.75628C6.03281 2.92038 6.125 3.14294 6.125 3.375C6.125 3.60706 6.03281 3.82962 5.86872 3.99372C5.70462 4.15781 5.48206 4.25 5.25 4.25C5.01794 4.25 4.79538 4.15781 4.63128 3.99372C4.46719 3.82962 4.375 3.60706 4.375 3.375C4.375 3.14294 4.46719 2.92038 4.63128 2.75628C4.79538 2.59219 5.01794 2.5 5.25 2.5ZM1.96875 8.1875C1.96875 8.01345 2.03789 7.84653 2.16096 7.72346C2.28403 7.60039 2.45095 7.53125 2.625 7.53125C2.79905 7.53125 2.96597 7.60039 3.08904 7.72346C3.21211 7.84653 3.28125 8.01345 3.28125 8.1875C3.28125 8.36155 3.21211 8.52847 3.08904 8.65154C2.96597 8.77461 2.79905 8.84375 2.625 8.84375C2.45095 8.84375 2.28403 8.77461 2.16096 8.65154C2.03789 8.52847 1.96875 8.36155 1.96875 8.1875ZM4.8125 7.75H8.3125C8.55313 7.75 8.75 7.94688 8.75 8.1875C8.75 8.42812 8.55313 8.625 8.3125 8.625H4.8125C4.57188 8.625 4.375 8.42812 4.375 8.1875C4.375 7.94688 4.57188 7.75 4.8125 7.75ZM1.96875 10.8125C1.96875 10.6385 2.03789 10.4715 2.16096 10.3485C2.28403 10.2254 2.45095 10.1562 2.625 10.1562C2.79905 10.1562 2.96597 10.2254 3.08904 10.3485C3.21211 10.4715 3.28125 10.6385 3.28125 10.8125C3.28125 10.9865 3.21211 11.1535 3.08904 11.2765C2.96597 11.3996 2.79905 11.4688 2.625 11.4688C2.45095 11.4688 2.28403 11.3996 2.16096 11.2765C2.03789 11.1535 1.96875 10.9865 1.96875 10.8125ZM4.375 10.8125C4.375 10.5719 4.57188 10.375 4.8125 10.375H8.3125C8.55313 10.375 8.75 10.5719 8.75 10.8125C8.75 11.0531 8.55313 11.25 8.3125 11.25H4.8125C4.57188 11.25 4.375 11.0531 4.375 10.8125Z" fill="#9CA3AF"/>
</g>
<defs>
<clipPath id="clip0_643_9591">
<path d="M0 0.75H10.5V14.75H0V0.75Z" fill="white"/>
</clipPath>
</defs>
</svg>
