<svg width="13" height="15" viewBox="0 0 13 15" fill="none" xmlns="http://www.w3.org/2000/svg">
<g clip-path="url(#clip0_643_9600)">
<path d="M6.125 7.75C7.05326 7.75 7.9435 7.38125 8.59987 6.72487C9.25625 6.0685 9.625 5.17826 9.625 4.25C9.625 3.32174 9.25625 2.4315 8.59987 1.77513C7.9435 1.11875 7.05326 0.75 6.125 0.75C5.19674 0.75 4.3065 1.11875 3.65013 1.77513C2.99375 2.4315 2.625 3.32174 2.625 4.25C2.625 5.17826 2.99375 6.0685 3.65013 6.72487C4.3065 7.38125 5.19674 7.75 6.125 7.75ZM4.87539 9.0625C2.18203 9.0625 0 11.2445 0 13.9379C0 14.3863 0.363672 14.75 0.812109 14.75H11.4379C11.8863 14.75 12.25 14.3863 12.25 13.9379C12.25 11.2445 10.068 9.0625 7.37461 9.0625H4.87539Z" fill="#9CA3AF"/>
</g>
<defs>
<clipPath id="clip0_643_9600">
<path d="M0 0.75H12.25V14.75H0V0.75Z" fill="white"/>
</clipPath>
</defs>
</svg>
