<svg width="13" height="15" viewBox="0 0 13 15" fill="none" xmlns="http://www.w3.org/2000/svg">
<g clip-path="url(#clip0_643_9659)">
<path d="M9.55309 1.96953C9.71441 1.59493 9.5941 1.15743 9.26324 0.9168C8.93238 0.676175 8.48121 0.69805 8.17223 0.966019L1.17223 7.09102C0.89879 7.33164 0.800352 7.71719 0.928868 8.05625C1.05738 8.39532 1.38551 8.625 1.74918 8.625H4.79801L2.69527 13.5305C2.53395 13.9051 2.65426 14.3426 2.98512 14.5832C3.31598 14.8238 3.76715 14.802 4.07613 14.534L11.0761 8.40899C11.3496 8.16836 11.448 7.78282 11.3195 7.44375C11.191 7.10469 10.8656 6.87774 10.4992 6.87774H7.45035L9.55309 1.96953Z" fill="#9CA3AF"/>
</g>
<defs>
<clipPath id="clip0_643_9659">
<path d="M0 0.75H12.25V14.75H0V0.75Z" fill="white"/>
</clipPath>
</defs>
</svg>
