<svg width="13" height="15" viewBox="0 0 13 15" fill="none" xmlns="http://www.w3.org/2000/svg">
<path d="M12.25 14.75H0V0.75H12.25V14.75Z" stroke="#E5E7EB"/>
<path d="M0 2.93752V7.02541C0 7.49026 0.183203 7.93596 0.511328 8.26408L5.32383 13.0766C6.00742 13.7602 7.11484 13.7602 7.79844 13.0766L11.4488 9.42619C12.1324 8.7426 12.1324 7.63518 11.4488 6.95158L6.63633 2.13908C6.3082 1.81096 5.8625 1.62776 5.39766 1.62776H1.3125C0.587891 1.62502 0 2.21291 0 2.93752ZM3.0625 3.81252C3.29456 3.81252 3.51712 3.90471 3.68122 4.0688C3.84531 4.2329 3.9375 4.45546 3.9375 4.68752C3.9375 4.91959 3.84531 5.14215 3.68122 5.30624C3.51712 5.47033 3.29456 5.56252 3.0625 5.56252C2.83044 5.56252 2.60788 5.47033 2.44378 5.30624C2.27969 5.14215 2.1875 4.91959 2.1875 4.68752C2.1875 4.45546 2.27969 4.2329 2.44378 4.0688C2.60788 3.90471 2.83044 3.81252 3.0625 3.81252Z" fill="#9CA3AF"/>
</svg>
