<svg width="17" height="16" viewBox="0 0 17 16" fill="none" xmlns="http://www.w3.org/2000/svg">
<g clip-path="url(#clip0_1_5909)">
<path d="M11.6 12.8906L3.23438 4.525C2.53437 5.50313 2.125 6.70312 2.125 8C2.125 11.3125 4.8125 14 8.125 14C9.42188 14 10.6219 13.5906 11.6 12.8906ZM13.0156 11.475C13.7156 10.4969 14.125 9.29688 14.125 8C14.125 4.6875 11.4375 2 8.125 2C6.82812 2 5.62813 2.40937 4.65 3.10938L13.0156 11.475ZM0.125 8C0.125 5.87827 0.967855 3.84344 2.46815 2.34315C3.96844 0.842855 6.00327 0 8.125 0C10.2467 0 12.2816 0.842855 13.7819 2.34315C15.2821 3.84344 16.125 5.87827 16.125 8C16.125 10.1217 15.2821 12.1566 13.7819 13.6569C12.2816 15.1571 10.2467 16 8.125 16C6.00327 16 3.96844 15.1571 2.46815 13.6569C0.967855 12.1566 0.125 10.1217 0.125 8Z" fill="#E74C3C"/>
</g>
<defs>
<clipPath id="clip0_1_5909">
<path d="M0.125 0H16.125V16H0.125V0Z" fill="white"/>
</clipPath>
</defs>
</svg>
