<svg width="15" height="15" viewBox="0 0 15 15" fill="none" xmlns="http://www.w3.org/2000/svg">
<g clip-path="url(#clip0_1_9723)">
<path d="M0.23162 2.25117C0.412089 1.86836 0.794901 1.625 1.21873 1.625H13.0312C13.4551 1.625 13.8379 1.86836 14.0183 2.25117C14.1988 2.63398 14.1441 3.08516 13.8762 3.41328L8.87498 9.52461V13C8.87498 13.3309 8.68904 13.6344 8.391 13.782C8.09295 13.9297 7.74021 13.8996 7.47498 13.7L5.72498 12.3875C5.5035 12.2234 5.37498 11.9637 5.37498 11.6875V9.52461L0.371073 3.41055C0.105839 3.08516 0.0484167 2.63125 0.23162 2.25117Z" fill="#4B5563"/>
</g>
<defs>
<clipPath id="clip0_1_9723">
<path d="M0.125 0.75H14.125V14.75H0.125V0.75Z" fill="white"/>
</clipPath>
</defs>
</svg>
