<svg width="16" height="19" viewBox="0 0 16 19" fill="none" xmlns="http://www.w3.org/2000/svg">
<g clip-path="url(#clip0_1_9872)">
<path d="M14.625 0.25C14.0625 0.25 10.125 1.375 10.125 6.4375V10.375C10.125 11.616 11.134 12.625 12.375 12.625H13.5V17.125C13.5 17.7473 14.0027 18.25 14.625 18.25C15.2473 18.25 15.75 17.7473 15.75 17.125V12.625V8.6875V1.375C15.75 0.752734 15.2473 0.25 14.625 0.25ZM2.25 0.8125C2.25 0.524219 2.03555 0.285156 1.74727 0.253516C1.45898 0.221875 1.20234 0.411719 1.13906 0.689453L0.0738281 5.48125C0.0246094 5.70273 0 5.92773 0 6.15273C0 7.76641 1.23398 9.0918 2.8125 9.23594V17.125C2.8125 17.7473 3.31523 18.25 3.9375 18.25C4.55977 18.25 5.0625 17.7473 5.0625 17.125V9.23594C6.64102 9.0918 7.875 7.76641 7.875 6.15273C7.875 5.92773 7.85039 5.70273 7.80117 5.48125L6.73594 0.689453C6.67266 0.408203 6.40898 0.221875 6.12422 0.253516C5.83945 0.285156 5.625 0.524219 5.625 0.8125V5.53047C5.625 5.72031 5.47031 5.875 5.28047 5.875C5.10117 5.875 4.95352 5.73789 4.93594 5.55859L4.49648 0.763281C4.47188 0.471484 4.2293 0.25 3.9375 0.25C3.6457 0.25 3.40313 0.471484 3.37852 0.763281L2.94258 5.55859C2.925 5.73789 2.77734 5.875 2.59805 5.875C2.4082 5.875 2.25352 5.72031 2.25352 5.53047V0.8125H2.25ZM3.94805 6.15625H3.9375H3.92695L3.9375 6.13164L3.94805 6.15625Z" fill="#F1C40F"/>
</g>
<defs>
<clipPath id="clip0_1_9872">
<path d="M0 0.25H15.75V18.25H0V0.25Z" fill="white"/>
</clipPath>
</defs>
</svg>
