<svg width="18" height="19" viewBox="0 0 18 19" fill="none" xmlns="http://www.w3.org/2000/svg">
<path d="M18 18.25H0V0.25H18V18.25Z" stroke="#E5E7EB"/>
<path d="M7.59375 2.5C7.12617 2.5 6.75 2.87617 6.75 3.34375C6.75 3.81133 7.12617 4.1875 7.59375 4.1875H8.15625V5.3582C4.20469 5.77656 1.125 9.12344 1.125 13.1875H16.875C16.875 9.12344 13.7953 5.77656 9.84375 5.3582V4.1875H10.4062C10.8738 4.1875 11.25 3.81133 11.25 3.34375C11.25 2.87617 10.8738 2.5 10.4062 2.5H9H7.59375ZM0.84375 14.3125C0.376172 14.3125 0 14.6887 0 15.1562C0 15.6238 0.376172 16 0.84375 16H17.1562C17.6238 16 18 15.6238 18 15.1562C18 14.6887 17.6238 14.3125 17.1562 14.3125H0.84375Z" fill="#0A6ED1"/>
</svg>
