<svg width="21" height="19" viewBox="0 0 21 19" fill="none" xmlns="http://www.w3.org/2000/svg">
<g clip-path="url(#clip0_1_9816)">
<path d="M19.9195 2.16973C20.359 1.73027 20.359 1.0166 19.9195 0.577148C19.4801 0.137695 18.7664 0.137695 18.327 0.577148L11.577 7.32715L10.357 6.10723C10.2094 5.95957 10.0055 5.8752 9.79453 5.8752C9.35508 5.8752 9 6.23027 9 6.66973V7.69277L12.8074 11.5002H13.8305C14.2699 11.5002 14.625 11.1451 14.625 10.7057C14.625 10.4947 14.5406 10.2908 14.393 10.1432L13.173 8.92324L19.923 2.17324L19.9195 2.16973ZM11.9918 12.6744L7.82578 8.5084C6.32461 8.37832 4.83047 8.91973 3.75469 9.99551L3.47344 10.2768C2.68945 11.0607 2.25 12.1225 2.25 13.2299C2.25 13.4689 2.49961 13.6236 2.71406 13.5182L4.51055 12.6217C4.68633 12.5338 4.84453 12.7658 4.70039 12.8994L0.256641 16.8932C0.0949219 17.0408 0 17.2518 0 17.4732C0 17.9021 0.348047 18.2502 0.776953 18.2502H6.86953C8.23359 18.2502 9.53789 17.7088 10.5047 16.7455C11.5805 15.6697 12.1184 14.1756 11.9918 12.6744Z" fill="#2ECC71"/>
</g>
<defs>
<clipPath id="clip0_1_9816">
<path d="M0 0.25H20.25V18.25H0V0.25Z" fill="white"/>
</clipPath>
</defs>
</svg>
