<svg width="18" height="19" viewBox="0 0 18 19" fill="none" xmlns="http://www.w3.org/2000/svg">
<g clip-path="url(#clip0_1_9888)">
<path d="M2.7633 0.425716C2.42932 0.165559 1.95471 0.1972 1.65236 0.496028L0.246113 1.90228C-0.0527147 2.20111 -0.0843553 2.67572 0.172285 3.01322L2.98479 6.66947C3.14299 6.87689 3.3926 6.99993 3.65275 6.99993H5.55471L9.38674 10.832C8.86994 11.8515 9.03518 13.1312 9.88947 13.982L13.827 17.9195C14.2664 18.3589 14.9801 18.3589 15.4196 17.9195L17.6696 15.6695C18.109 15.23 18.109 14.5163 17.6696 14.0769L13.7321 10.1394C12.8813 9.28861 11.6016 9.11986 10.5821 9.63665L6.75002 5.80462V3.90618C6.75002 3.64251 6.62697 3.39642 6.41955 3.23822L2.7633 0.425716ZM0.699629 14.1753C0.253145 14.6218 1.96925e-05 15.23 1.96925e-05 15.8628C1.96925e-05 17.1812 1.06877 18.2499 2.38713 18.2499C3.01994 18.2499 3.62814 17.9968 4.07463 17.5503L8.21603 13.4089C7.94182 12.6742 7.89963 11.8761 8.08947 11.1202L5.92033 8.95111L0.699629 14.1753ZM18 5.31243C18 4.94329 17.9613 4.5847 17.8875 4.24017C17.8031 3.84642 17.3215 3.74447 17.0367 4.02923L14.7903 6.27572C14.6848 6.38118 14.5406 6.44095 14.393 6.44095H12.375C12.0656 6.44095 11.8125 6.18783 11.8125 5.87845V3.85697C11.8125 3.70931 11.8723 3.56517 11.9778 3.4597L14.2242 1.21322C14.509 0.92845 14.4071 0.446809 14.0133 0.362434C13.6653 0.288606 13.3067 0.249934 12.9375 0.249934C10.1426 0.249934 7.87502 2.51751 7.87502 5.31243V5.34056L10.8738 8.33939C12.1395 8.01947 13.5387 8.35697 14.5301 9.34837L15.0821 9.90032C16.8047 9.09173 18 7.34095 18 5.31243ZM1.96877 15.4374C1.96877 15.2137 2.05766 14.999 2.2159 14.8408C2.37413 14.6826 2.58874 14.5937 2.81252 14.5937C3.0363 14.5937 3.25091 14.6826 3.40914 14.8408C3.56737 14.999 3.65627 15.2137 3.65627 15.4374C3.65627 15.6612 3.56737 15.8758 3.40914 16.0341C3.25091 16.1923 3.0363 16.2812 2.81252 16.2812C2.58874 16.2812 2.37413 16.1923 2.2159 16.0341C2.05766 15.8758 1.96877 15.6612 1.96877 15.4374Z" fill="#1ABC9C"/>
</g>
<defs>
<clipPath id="clip0_1_9888">
<path d="M0 0.25H18V18.25H0V0.25Z" fill="white"/>
</clipPath>
</defs>
</svg>
