<svg width="15" height="15" viewBox="0 0 15 15" fill="none" xmlns="http://www.w3.org/2000/svg">
<g clip-path="url(#clip0_1_9726)">
<path d="M1.51562 2.5C0.791016 2.5 0.203125 3.08789 0.203125 3.8125C0.203125 4.22539 0.397266 4.61367 0.728125 4.8625L6.67812 9.325C6.98984 9.55742 7.41641 9.55742 7.72813 9.325L13.6781 4.8625C14.009 4.61367 14.2031 4.22539 14.2031 3.8125C14.2031 3.08789 13.6152 2.5 12.8906 2.5H1.51562ZM0.203125 5.5625V11.25C0.203125 12.2152 0.987891 13 1.95312 13H12.4531C13.4184 13 14.2031 12.2152 14.2031 11.25V5.5625L8.25313 10.025C7.62969 10.4926 6.77656 10.4926 6.15313 10.025L0.203125 5.5625Z" fill="#0A6ED1"/>
</g>
<defs>
<clipPath id="clip0_1_9726">
<path d="M0.203125 0.75H14.2031V14.75H0.203125V0.75Z" fill="white"/>
</clipPath>
</defs>
</svg>
