<svg width="14" height="14" viewBox="0 0 14 14" fill="none" xmlns="http://www.w3.org/2000/svg">
<path d="M4.50898 1.42278C4.29844 0.914191 3.74336 0.643488 3.21289 0.78841L0.806641 1.44466C0.330859 1.57591 0 2.00794 0 2.50013C0 9.26497 5.48516 14.7501 12.25 14.7501C12.7422 14.7501 13.1742 14.4193 13.3055 13.9435L13.9617 11.5372C14.1066 11.0068 13.8359 10.4517 13.3273 10.2411L10.7023 9.14739C10.2566 8.96146 9.73984 9.08997 9.43633 9.46458L8.33164 10.8126C6.40664 9.90208 4.84805 8.34349 3.9375 6.41849L5.28555 5.31653C5.66016 5.01028 5.78867 4.49622 5.60273 4.05052L4.50898 1.42552V1.42278Z" fill="#4B5563"/>
</svg>
