<svg width="19" height="24" viewBox="0 0 19 24" fill="none" xmlns="http://www.w3.org/2000/svg">
<path d="M3.125 0C1.88281 0 0.875 1.00781 0.875 2.25V21.75C0.875 22.9922 1.88281 24 3.125 24H7.625V20.25C7.625 19.0078 8.63281 18 9.875 18C11.1172 18 12.125 19.0078 12.125 20.25V24H16.625C17.8672 24 18.875 22.9922 18.875 21.75V2.25C18.875 1.00781 17.8672 0 16.625 0H3.125ZM3.875 11.25C3.875 10.8375 4.2125 10.5 4.625 10.5H6.125C6.5375 10.5 6.875 10.8375 6.875 11.25V12.75C6.875 13.1625 6.5375 13.5 6.125 13.5H4.625C4.2125 13.5 3.875 13.1625 3.875 12.75V11.25ZM9.125 10.5H10.625C11.0375 10.5 11.375 10.8375 11.375 11.25V12.75C11.375 13.1625 11.0375 13.5 10.625 13.5H9.125C8.7125 13.5 8.375 13.1625 8.375 12.75V11.25C8.375 10.8375 8.7125 10.5 9.125 10.5ZM12.875 11.25C12.875 10.8375 13.2125 10.5 13.625 10.5H15.125C15.5375 10.5 15.875 10.8375 15.875 11.25V12.75C15.875 13.1625 15.5375 13.5 15.125 13.5H13.625C13.2125 13.5 12.875 13.1625 12.875 12.75V11.25ZM4.625 4.5H6.125C6.5375 4.5 6.875 4.8375 6.875 5.25V6.75C6.875 7.1625 6.5375 7.5 6.125 7.5H4.625C4.2125 7.5 3.875 7.1625 3.875 6.75V5.25C3.875 4.8375 4.2125 4.5 4.625 4.5ZM8.375 5.25C8.375 4.8375 8.7125 4.5 9.125 4.5H10.625C11.0375 4.5 11.375 4.8375 11.375 5.25V6.75C11.375 7.1625 11.0375 7.5 10.625 7.5H9.125C8.7125 7.5 8.375 7.1625 8.375 6.75V5.25ZM13.625 4.5H15.125C15.5375 4.5 15.875 4.8375 15.875 5.25V6.75C15.875 7.1625 15.5375 7.5 15.125 7.5H13.625C13.2125 7.5 12.875 7.1625 12.875 6.75V5.25C12.875 4.8375 13.2125 4.5 13.625 4.5Z" fill="#0A6ED1"/>
</svg>
