<svg width="21" height="16" viewBox="0 0 21 16" fill="none" xmlns="http://www.w3.org/2000/svg">
<g clip-path="url(#clip0_1_13074)">
<path d="M7.65625 8C8.71712 8 9.73453 7.57857 10.4847 6.82843C11.2348 6.07828 11.6562 5.06087 11.6562 4C11.6562 2.93913 11.2348 1.92172 10.4847 1.17157C9.73453 0.421427 8.71712 0 7.65625 0C6.59538 0 5.57797 0.421427 4.82782 1.17157C4.07768 1.92172 3.65625 2.93913 3.65625 4C3.65625 5.06087 4.07768 6.07828 4.82782 6.82843C5.57797 7.57857 6.59538 8 7.65625 8ZM6.22813 9.5C3.15 9.5 0.65625 11.9937 0.65625 15.0719C0.65625 15.5844 1.07188 16 1.58438 16H13.7281C13.7844 16 13.8375 15.9937 13.8938 15.9844C11.5094 14.2625 10.775 11.5781 10.6719 9.72812C10.1687 9.57812 9.6375 9.5 9.0875 9.5H6.22813ZM15.8781 7.05312L12.1281 8.55313C11.8438 8.66875 11.6562 8.94375 11.6562 9.25C11.6562 11.2281 12.4656 14.525 15.8687 15.9438C16.0531 16.0219 16.2625 16.0219 16.4469 15.9438C19.8469 14.525 20.6562 11.2281 20.6562 9.25C20.6562 8.94375 20.4688 8.66875 20.1844 8.55313L16.4344 7.05312C16.2562 6.98125 16.0563 6.98125 15.8781 7.05312ZM19.1375 9.75C19.0156 11.3344 18.2875 13.3969 16.1562 14.4281V8.55625L19.1375 9.75Z" fill="#0A6ED1"/>
</g>
<defs>
<clipPath id="clip0_1_13074">
<path d="M0.65625 0H20.6562V16H0.65625V0Z" fill="white"/>
</clipPath>
</defs>
</svg>
