<svg width="15" height="17" viewBox="0 0 15 17" fill="none" xmlns="http://www.w3.org/2000/svg">
<path d="M14.0469 17H0.046875V0H14.0469V17Z" stroke="#E5E7EB"/>
<g clip-path="url(#clip0_1_12694)">
<path d="M9.23438 11.375C11.8922 11.375 14.0469 9.22031 14.0469 6.5625C14.0469 3.90469 11.8922 1.75 9.23438 1.75C6.57656 1.75 4.42188 3.90469 4.42188 6.5625C4.42188 7.07383 4.50117 7.56875 4.64883 8.03086L0.238281 12.4414C0.115234 12.5645 0.046875 12.7312 0.046875 12.9062V15.0938C0.046875 15.4574 0.339453 15.75 0.703125 15.75H2.89062C3.2543 15.75 3.54688 15.4574 3.54688 15.0938V14H4.64062C5.0043 14 5.29688 13.7074 5.29688 13.3438V12.25H6.39062C6.56563 12.25 6.73242 12.1816 6.85547 12.0586L7.76602 11.148C8.22812 11.2957 8.72305 11.375 9.23438 11.375ZM10.3281 4.375C10.6182 4.375 10.8964 4.49023 11.1015 4.69535C11.3066 4.90047 11.4219 5.17867 11.4219 5.46875C11.4219 5.75883 11.3066 6.03703 11.1015 6.24215C10.8964 6.44727 10.6182 6.5625 10.3281 6.5625C10.038 6.5625 9.75984 6.44727 9.55473 6.24215C9.34961 6.03703 9.23438 5.75883 9.23438 5.46875C9.23438 5.17867 9.34961 4.90047 9.55473 4.69535C9.75984 4.49023 10.038 4.375 10.3281 4.375Z" fill="white"/>
</g>
<defs>
<clipPath id="clip0_1_12694">
<path d="M0.046875 1.75H14.0469V15.75H0.046875V1.75Z" fill="white"/>
</clipPath>
</defs>
</svg>
