<svg width="18" height="16" viewBox="0 0 18 16" fill="none" xmlns="http://www.w3.org/2000/svg">
<path d="M18 16H0V0H18V16Z" stroke="#E5E7EB"/>
<path d="M8.26562 0.162695C8.73125 -0.0529297 9.26875 -0.0529297 9.73438 0.162695L16.5656 3.31895C16.8312 3.44082 17 3.70645 17 4.0002C17 4.29395 16.8312 4.55957 16.5656 4.68145L9.73438 7.8377C9.26875 8.05332 8.73125 8.05332 8.26562 7.8377L1.43438 4.68145C1.16875 4.55645 1 4.29082 1 4.0002C1 3.70957 1.16875 3.44082 1.43438 3.31895L8.26562 0.162695ZM14.9031 6.5502L16.5656 7.31895C16.8312 7.44082 17 7.70645 17 8.0002C17 8.29395 16.8312 8.55957 16.5656 8.68145L9.73438 11.8377C9.26875 12.0533 8.73125 12.0533 8.26562 11.8377L1.43438 8.68145C1.16875 8.55645 1 8.29082 1 8.0002C1 7.70957 1.16875 7.44082 1.43438 7.31895L3.09687 6.5502L7.84688 8.74395C8.57812 9.08144 9.42188 9.08144 10.1531 8.74395L14.9031 6.5502ZM10.1531 12.7439L14.9031 10.5502L16.5656 11.3189C16.8312 11.4408 17 11.7064 17 12.0002C17 12.2939 16.8312 12.5596 16.5656 12.6814L9.73438 15.8377C9.26875 16.0533 8.73125 16.0533 8.26562 15.8377L1.43438 12.6814C1.16875 12.5564 1 12.2908 1 12.0002C1 11.7096 1.16875 11.4408 1.43438 11.3189L3.09687 10.5502L7.84688 12.7439C8.57812 13.0814 9.42188 13.0814 10.1531 12.7439Z" fill="#0A6ED1"/>
</svg>
