<svg width="15" height="15" viewBox="0 0 15 15" fill="none" xmlns="http://www.w3.org/2000/svg">
<g clip-path="url(#clip0_539_548)">
<path d="M8.14844 1.625C8.14844 1.14102 7.75742 0.75 7.27344 0.75C6.78945 0.75 6.39844 1.14102 6.39844 1.625V8.26133L4.39141 6.2543C4.04961 5.9125 3.49453 5.9125 3.15273 6.2543C2.81094 6.59609 2.81094 7.15117 3.15273 7.49297L6.65273 10.993C6.99453 11.3348 7.54961 11.3348 7.89141 10.993L11.3914 7.49297C11.7332 7.15117 11.7332 6.59609 11.3914 6.2543C11.0496 5.9125 10.4945 5.9125 10.1527 6.2543L8.14844 8.26133V1.625ZM2.02344 10.375C1.0582 10.375 0.273438 11.1598 0.273438 12.125V13C0.273438 13.9652 1.0582 14.75 2.02344 14.75H12.5234C13.4887 14.75 14.2734 13.9652 14.2734 13V12.125C14.2734 11.1598 13.4887 10.375 12.5234 10.375H9.74805L8.50938 11.6137C7.82578 12.2973 6.71836 12.2973 6.03477 11.6137L4.79883 10.375H2.02344ZM12.0859 11.9062C12.26 11.9062 12.4269 11.9754 12.55 12.0985C12.673 12.2215 12.7422 12.3885 12.7422 12.5625C12.7422 12.7365 12.673 12.9035 12.55 13.0265C12.4269 13.1496 12.26 13.2188 12.0859 13.2188C11.9119 13.2188 11.745 13.1496 11.6219 13.0265C11.4988 12.9035 11.4297 12.7365 11.4297 12.5625C11.4297 12.3885 11.4988 12.2215 11.6219 12.0985C11.745 11.9754 11.9119 11.9062 12.0859 11.9062Z" fill="#374151"/>
</g>
<defs>
<clipPath id="clip0_539_548">
<path d="M0.273438 0.75H14.2734V14.75H0.273438V0.75Z" fill="white"/>
</clipPath>
</defs>
</svg>
