<svg width="14" height="13" viewBox="0 0 14 13" fill="none" xmlns="http://www.w3.org/2000/svg">
<g clip-path="url(#clip0_539_693)">
<path d="M7.09531 0.973633C5.17408 0.973633 3.6357 1.88153 2.51579 2.96212C1.40302 4.03284 0.658797 5.31574 0.306895 6.19649C0.228431 6.39139 0.228431 6.6085 0.306895 6.8034C0.658797 7.68416 1.40302 8.96702 2.51579 10.0378C3.6357 11.1184 5.17408 12.0263 7.09531 12.0263C9.01647 12.0263 10.5548 11.1184 11.6748 10.0378C12.7875 8.96456 13.5318 7.68416 13.886 6.8034C13.9645 6.6085 13.9645 6.39139 13.886 6.19649C13.5318 5.31574 12.7875 4.03284 11.6748 2.96212C10.5548 1.88153 9.01647 0.973633 7.09531 0.973633ZM3.67137 6.49995C3.67137 5.55773 4.0321 4.65411 4.67421 3.98786C5.31632 3.32161 6.1872 2.94732 7.09531 2.94732C8.00336 2.94732 8.87422 3.32161 9.51633 3.98786C10.1584 4.65411 10.5192 5.55773 10.5192 6.49995C10.5192 7.44214 10.1584 8.3458 9.51633 9.01205C8.87422 9.67831 8.00336 10.0526 7.09531 10.0526C6.1872 10.0526 5.31632 9.67831 4.67421 9.01205C4.0321 8.3458 3.67137 7.44214 3.67137 6.49995ZM7.09531 4.921C7.09531 5.79189 6.4129 6.49995 5.57354 6.49995C5.40472 6.49995 5.24304 6.47034 5.09086 6.41853C4.96009 6.37413 4.80792 6.45801 4.81267 6.6011C4.8198 6.77133 4.84358 6.94155 4.88876 7.11182C5.21451 8.37498 6.46756 9.12492 7.68495 8.78696C8.90234 8.44894 9.62517 7.14877 9.2994 5.88564C9.03553 4.86179 8.1629 4.17347 7.19276 4.13153C7.05483 4.12659 6.974 4.28202 7.01679 4.42018C7.06676 4.57807 7.09531 4.74584 7.09531 4.921Z" fill="#0A6ED1"/>
</g>
<defs>
<clipPath id="clip0_539_693">
<rect width="14" height="12" fill="white" transform="translate(0 0.5)"/>
</clipPath>
</defs>
</svg>
