<svg width="15" height="15" viewBox="0 0 15 15" fill="none" xmlns="http://www.w3.org/2000/svg">
<g clip-path="url(#clip0_539_542)">
<path d="M0.14556 2.25117C0.326029 1.86836 0.708842 1.625 1.13267 1.625H12.9452C13.369 1.625 13.7518 1.86836 13.9323 2.25117C14.1127 2.63398 14.0581 3.08516 13.7901 3.41328L8.78892 9.52461V13C8.78892 13.3309 8.60298 13.6344 8.30494 13.782C8.00689 13.9297 7.65415 13.8996 7.38892 13.7L5.63892 12.3875C5.41744 12.2234 5.28892 11.9637 5.28892 11.6875V9.52461L0.285013 3.41055C0.019779 3.08516 -0.0376429 2.63125 0.14556 2.25117Z" fill="#374151"/>
</g>
<defs>
<clipPath id="clip0_539_542">
<path d="M0.0390625 0.75H14.0391V14.75H0.0390625V0.75Z" fill="white"/>
</clipPath>
</defs>
</svg>
