<svg width="13" height="15" viewBox="0 0 13 15" fill="none" xmlns="http://www.w3.org/2000/svg">
<g clip-path="url(#clip0_539_554)">
<path d="M7.53906 2.9375C7.53906 2.45352 7.14805 2.0625 6.66406 2.0625C6.18008 2.0625 5.78906 2.45352 5.78906 2.9375V6.875H1.85156C1.36758 6.875 0.976562 7.26602 0.976562 7.75C0.976562 8.23398 1.36758 8.625 1.85156 8.625H5.78906V12.5625C5.78906 13.0465 6.18008 13.4375 6.66406 13.4375C7.14805 13.4375 7.53906 13.0465 7.53906 12.5625V8.625H11.4766C11.9605 8.625 12.3516 8.23398 12.3516 7.75C12.3516 7.26602 11.9605 6.875 11.4766 6.875H7.53906V2.9375Z" fill="white"/>
</g>
<defs>
<clipPath id="clip0_539_554">
<path d="M0.539062 0.75H12.7891V14.75H0.539062V0.75Z" fill="white"/>
</clipPath>
</defs>
</svg>
