<svg width="16" height="16" viewBox="0 0 16 16" fill="none" xmlns="http://www.w3.org/2000/svg">
<path d="M16 16H0V0H16V16Z" stroke="#E5E7EB"/>
<path d="M6.40625 1.08752C6.76562 1.24689 7 1.60627 7 2.00002V4.00002H10.5C13.5375 4.00002 16 6.46252 16 9.50002C16 13.0406 13.4531 14.6219 12.8687 14.9406C12.7906 14.9844 12.7031 15 12.6156 15C12.275 15 12 14.7219 12 14.3844C12 14.15 12.1344 13.9344 12.3062 13.775C12.6 13.5 13 12.95 13 12.0031C13 10.3469 11.6562 9.00314 10 9.00314H7V11.0031C7 11.3969 6.76875 11.7563 6.40625 11.9156C6.04375 12.075 5.625 12.0094 5.33125 11.7469L0.33125 7.24689C0.121875 7.05314 0 6.78439 0 6.50002C0 6.21564 0.121875 5.94689 0.33125 5.75627L5.33125 1.25627C5.625 0.990644 6.04688 0.925019 6.40625 1.08752Z" fill="#2ECC71"/>
</svg>
