<svg width="16" height="15" viewBox="0 0 16 15" fill="none" xmlns="http://www.w3.org/2000/svg">
<g clip-path="url(#clip0_539_3233)">
<path d="M8.1248 2.4375C6.34199 2.4375 4.87637 3.24688 3.75254 4.28867C2.69981 5.26758 1.97246 6.42969 1.60059 7.25C1.97246 8.07031 2.6998 9.23242 3.7498 10.2113C4.87637 11.2531 6.34199 12.0625 8.1248 12.0625C9.90762 12.0625 11.3732 11.2531 12.4971 10.2113C13.5498 9.23242 14.2771 8.07031 14.649 7.25C14.2771 6.42969 13.5498 5.26758 12.4998 4.28867C11.3732 3.24688 9.90762 2.4375 8.1248 2.4375ZM2.8584 3.32891C4.14629 2.13125 5.91543 1.125 8.1248 1.125C10.3342 1.125 12.1033 2.13125 13.3912 3.32891C14.6709 4.51836 15.5268 5.9375 15.9342 6.91367C16.0244 7.12969 16.0244 7.37031 15.9342 7.58633C15.5268 8.5625 14.6709 9.98438 13.3912 11.1711C12.1033 12.3687 10.3342 13.375 8.1248 13.375C5.91543 13.375 4.14629 12.3687 2.8584 11.1711C1.57871 9.98438 0.722852 8.5625 0.318164 7.58633C0.22793 7.37031 0.22793 7.12969 0.318164 6.91367C0.722852 5.9375 1.57871 4.51562 2.8584 3.32891ZM8.1248 9.4375C9.3334 9.4375 10.3123 8.45859 10.3123 7.25C10.3123 6.04141 9.3334 5.0625 8.1248 5.0625C8.10566 5.0625 8.08926 5.0625 8.07012 5.0625C8.10566 5.20195 8.1248 5.34961 8.1248 5.5C8.1248 6.46523 7.34004 7.25 6.3748 7.25C6.22441 7.25 6.07676 7.23086 5.9373 7.19531C5.9373 7.21445 5.9373 7.23086 5.9373 7.25C5.9373 8.45859 6.91621 9.4375 8.1248 9.4375ZM8.1248 3.75C9.05306 3.75 9.9433 4.11875 10.5997 4.77513C11.2561 5.4315 11.6248 6.32174 11.6248 7.25C11.6248 8.17826 11.2561 9.0685 10.5997 9.72487C9.9433 10.3813 9.05306 10.75 8.1248 10.75C7.19655 10.75 6.30631 10.3813 5.64993 9.72487C4.99355 9.0685 4.6248 8.17826 4.6248 7.25C4.6248 6.32174 4.99355 5.4315 5.64993 4.77513C6.30631 4.11875 7.19655 3.75 8.1248 3.75Z" fill="#9CA3AF"/>
</g>
<defs>
<clipPath id="clip0_539_3233">
<path d="M0.25 0.25H16V14.25H0.25V0.25Z" fill="white"/>
</clipPath>
</defs>
</svg>
