<svg width="21" height="21" viewBox="0 0 21 21" fill="none" xmlns="http://www.w3.org/2000/svg">
<g clip-path="url(#clip0_539_3201)">
<path d="M0 1.3125C0 0.586523 0.586523 0 1.3125 0H19.6875C20.4135 0 21 0.586523 21 1.3125C21 2.03848 20.4135 2.625 19.6875 2.625V18.375C20.4135 18.375 21 18.9615 21 19.6875C21 20.4135 20.4135 21 19.6875 21H12.4688V19.0312C12.4688 17.9443 11.5869 17.0625 10.5 17.0625C9.41309 17.0625 8.53125 17.9443 8.53125 19.0312V21H1.3125C0.586523 21 0 20.4135 0 19.6875C0 18.9615 0.586523 18.375 1.3125 18.375V2.625C0.586523 2.625 0 2.03848 0 1.3125ZM3.9375 4.59375V5.90625C3.9375 6.26719 4.23281 6.5625 4.59375 6.5625H5.90625C6.26719 6.5625 6.5625 6.26719 6.5625 5.90625V4.59375C6.5625 4.23281 6.26719 3.9375 5.90625 3.9375H4.59375C4.23281 3.9375 3.9375 4.23281 3.9375 4.59375ZM9.84375 3.9375C9.48281 3.9375 9.1875 4.23281 9.1875 4.59375V5.90625C9.1875 6.26719 9.48281 6.5625 9.84375 6.5625H11.1562C11.5172 6.5625 11.8125 6.26719 11.8125 5.90625V4.59375C11.8125 4.23281 11.5172 3.9375 11.1562 3.9375H9.84375ZM14.4375 4.59375V5.90625C14.4375 6.26719 14.7328 6.5625 15.0938 6.5625H16.4062C16.7672 6.5625 17.0625 6.26719 17.0625 5.90625V4.59375C17.0625 4.23281 16.7672 3.9375 16.4062 3.9375H15.0938C14.7328 3.9375 14.4375 4.23281 14.4375 4.59375ZM4.59375 7.875C4.23281 7.875 3.9375 8.17031 3.9375 8.53125V9.84375C3.9375 10.2047 4.23281 10.5 4.59375 10.5H5.90625C6.26719 10.5 6.5625 10.2047 6.5625 9.84375V8.53125C6.5625 8.17031 6.26719 7.875 5.90625 7.875H4.59375ZM9.1875 8.53125V9.84375C9.1875 10.2047 9.48281 10.5 9.84375 10.5H11.1562C11.5172 10.5 11.8125 10.2047 11.8125 9.84375V8.53125C11.8125 8.17031 11.5172 7.875 11.1562 7.875H9.84375C9.48281 7.875 9.1875 8.17031 9.1875 8.53125ZM15.0938 7.875C14.7328 7.875 14.4375 8.17031 14.4375 8.53125V9.84375C14.4375 10.2047 14.7328 10.5 15.0938 10.5H16.4062C16.7672 10.5 17.0625 10.2047 17.0625 9.84375V8.53125C17.0625 8.17031 16.7672 7.875 16.4062 7.875H15.0938ZM13.4531 15.75C13.9986 15.75 14.4498 15.3029 14.3145 14.7738C13.8797 13.0717 12.3375 11.8125 10.5 11.8125C8.6625 11.8125 7.11621 13.0717 6.68555 14.7738C6.5502 15.2988 7.00547 15.75 7.54688 15.75H13.4531Z" fill="white"/>
</g>
<defs>
<clipPath id="clip0_539_3201">
<path d="M0 0H21V21H0V0Z" fill="white"/>
</clipPath>
</defs>
</svg>
