<svg width="14" height="15" viewBox="0 0 14 15" fill="none" xmlns="http://www.w3.org/2000/svg">
<path d="M14 14.25H0V0.25H14V14.25Z" stroke="#E5E7EB"/>
<path d="M1.75 3.3125C1.50937 3.3125 1.3125 3.50937 1.3125 3.75V4.3543L6.0293 8.22617C6.59531 8.69102 7.40742 8.69102 7.97344 8.22617L12.6875 4.3543V3.75C12.6875 3.50937 12.4906 3.3125 12.25 3.3125H1.75ZM1.3125 6.05234V10.75C1.3125 10.9906 1.50937 11.1875 1.75 11.1875H12.25C12.4906 11.1875 12.6875 10.9906 12.6875 10.75V6.05234L8.80469 9.24062C7.75469 10.102 6.24258 10.102 5.19531 9.24062L1.3125 6.05234ZM0 3.75C0 2.78477 0.784766 2 1.75 2H12.25C13.2152 2 14 2.78477 14 3.75V10.75C14 11.7152 13.2152 12.5 12.25 12.5H1.75C0.784766 12.5 0 11.7152 0 10.75V3.75Z" fill="#9CA3AF"/>
</svg>
