<svg width="12" height="17" viewBox="0 0 12 17" fill="none" xmlns="http://www.w3.org/2000/svg">
<path d="M12 16.5H0V0.5H12V16.5Z" stroke="#E5E7EB"/>
<path d="M10.7066 5.20615C11.0973 4.81553 11.0973 4.18115 10.7066 3.79053C10.316 3.3999 9.68164 3.3999 9.29102 3.79053L6.00039 7.08428L2.70664 3.79365C2.31602 3.40303 1.68164 3.40303 1.29102 3.79365C0.900391 4.18428 0.900391 4.81865 1.29102 5.20928L4.58477 8.4999L1.29414 11.7937C0.903516 12.1843 0.903516 12.8187 1.29414 13.2093C1.68477 13.5999 2.31914 13.5999 2.70977 13.2093L6.00039 9.91553L9.29414 13.2062C9.68477 13.5968 10.3191 13.5968 10.7098 13.2062C11.1004 12.8155 11.1004 12.1812 10.7098 11.7905L7.41602 8.4999L10.7066 5.20615Z" fill="#6B7280"/>
</svg>
