<svg width="12" height="17" viewBox="0 0 12 17" fill="none" xmlns="http://www.w3.org/2000/svg">
<g clip-path="url(#clip0_539_4358)">
<path d="M1.5 0.5C0.671875 0.5 0 1.17188 0 2V15C0 15.8281 0.671875 16.5 1.5 16.5H4.5V14C4.5 13.1719 5.17188 12.5 6 12.5C6.82812 12.5 7.5 13.1719 7.5 14V16.5H10.5C11.3281 16.5 12 15.8281 12 15V2C12 1.17188 11.3281 0.5 10.5 0.5H1.5ZM2 8C2 7.725 2.225 7.5 2.5 7.5H3.5C3.775 7.5 4 7.725 4 8V9C4 9.275 3.775 9.5 3.5 9.5H2.5C2.225 9.5 2 9.275 2 9V8ZM5.5 7.5H6.5C6.775 7.5 7 7.725 7 8V9C7 9.275 6.775 9.5 6.5 9.5H5.5C5.225 9.5 5 9.275 5 9V8C5 7.725 5.225 7.5 5.5 7.5ZM8 8C8 7.725 8.225 7.5 8.5 7.5H9.5C9.775 7.5 10 7.725 10 8V9C10 9.275 9.775 9.5 9.5 9.5H8.5C8.225 9.5 8 9.275 8 9V8ZM2.5 3.5H3.5C3.775 3.5 4 3.725 4 4V5C4 5.275 3.775 5.5 3.5 5.5H2.5C2.225 5.5 2 5.275 2 5V4C2 3.725 2.225 3.5 2.5 3.5ZM5 4C5 3.725 5.225 3.5 5.5 3.5H6.5C6.775 3.5 7 3.725 7 4V5C7 5.275 6.775 5.5 6.5 5.5H5.5C5.225 5.5 5 5.275 5 5V4ZM8.5 3.5H9.5C9.775 3.5 10 3.725 10 4V5C10 5.275 9.775 5.5 9.5 5.5H8.5C8.225 5.5 8 5.275 8 5V4C8 3.725 8.225 3.5 8.5 3.5Z" fill="#9CA3AF"/>
</g>
<defs>
<clipPath id="clip0_539_4358">
<path d="M0 0.5H12V16.5H0V0.5Z" fill="white"/>
</clipPath>
</defs>
</svg>
