<svg width="18" height="20" viewBox="0 0 18 20" fill="none" xmlns="http://www.w3.org/2000/svg">
<path d="M17.7969 20H0.296875V0H17.7969V20Z" stroke="#E5E7EB"/>
<path d="M15.1682 5.38897C14.6496 4.87034 13.8112 4.87034 13.2926 5.38897L12.5798 6.09941L14.8982 8.41783L15.611 7.70502C16.1297 7.18639 16.1297 6.34807 15.611 5.82944L15.1682 5.38897ZM8.08269 10.5989C7.93823 10.7434 7.82693 10.921 7.76299 11.1175L7.06202 13.2204C6.99334 13.4241 7.04781 13.6491 7.19937 13.803C7.35093 13.9569 7.5759 14.009 7.78193 13.9404L9.88485 13.2394C10.079 13.1754 10.2566 13.0641 10.4035 12.9197L14.3654 8.9554L12.0446 6.63461L8.08269 10.5989ZM6.27342 6.3907C5.0183 6.3907 4 7.409 4 8.66412V14.7266C4 15.9817 5.0183 17 6.27342 17H12.3359C13.591 17 14.6093 15.9817 14.6093 14.7266V12.4532C14.6093 12.034 14.2707 11.6953 13.8515 11.6953C13.4323 11.6953 13.0937 12.034 13.0937 12.4532V14.7266C13.0937 15.1457 12.755 15.4844 12.3359 15.4844H6.27342C5.85426 15.4844 5.51562 15.1457 5.51562 14.7266V8.66412C5.51562 8.24496 5.85426 7.90631 6.27342 7.90631H8.54685C8.96601 7.90631 9.30465 7.56766 9.30465 7.1485C9.30465 6.72934 8.96601 6.3907 8.54685 6.3907H6.27342Z" fill="#0A6ED1"/>
</svg>
