<svg width="20" height="20" viewBox="0 0 20 20" fill="none" xmlns="http://www.w3.org/2000/svg">
<path d="M11.25 1.25024C11.25 0.558838 10.6914 0.000244141 10 0.000244141C9.30859 0.000244141 8.75 0.558838 8.75 1.25024V10.7307L5.88281 7.86353C5.39453 7.37524 4.60156 7.37524 4.11328 7.86353C3.625 8.35181 3.625 9.14478 4.11328 9.63306L9.11328 14.6331C9.60156 15.1213 10.3945 15.1213 10.8828 14.6331L15.8828 9.63306C16.3711 9.14478 16.3711 8.35181 15.8828 7.86353C15.3945 7.37524 14.6016 7.37524 14.1133 7.86353L11.25 10.7307V1.25024ZM2.5 13.7502C1.12109 13.7502 0 14.8713 0 16.2502V17.5002C0 18.8792 1.12109 20.0002 2.5 20.0002H17.5C18.8789 20.0002 20 18.8792 20 17.5002V16.2502C20 14.8713 18.8789 13.7502 17.5 13.7502H13.5352L11.7656 15.5198C10.7891 16.4963 9.20703 16.4963 8.23047 15.5198L6.46484 13.7502H2.5ZM16.875 15.9377C17.1236 15.9377 17.3621 16.0365 17.5379 16.2123C17.7137 16.3881 17.8125 16.6266 17.8125 16.8752C17.8125 17.1239 17.7137 17.3623 17.5379 17.5382C17.3621 17.714 17.1236 17.8127 16.875 17.8127C16.6264 17.8127 16.3879 17.714 16.2121 17.5382C16.0363 17.3623 15.9375 17.1239 15.9375 16.8752C15.9375 16.6266 16.0363 16.3881 16.2121 16.2123C16.3879 16.0365 16.6264 15.9377 16.875 15.9377Z" fill="#0A6ED1"/>
</svg>
