<svg width="15" height="12" viewBox="0 0 15 12" fill="none" xmlns="http://www.w3.org/2000/svg">
<g clip-path="url(#clip0_539_4026)">
<path d="M7.39218 0.473633C5.47096 0.473633 3.93258 1.38153 2.81267 2.46212C1.6999 3.53284 0.955672 4.81574 0.60377 5.69649C0.525306 5.89139 0.525306 6.1085 0.60377 6.3034C0.955672 7.18416 1.6999 8.46702 2.81267 9.5378C3.93258 10.6184 5.47096 11.5263 7.39218 11.5263C9.31335 11.5263 10.8517 10.6184 11.9716 9.5378C13.0844 8.46456 13.8287 7.18416 14.1829 6.3034C14.2614 6.1085 14.2614 5.89139 14.1829 5.69649C13.8287 4.81574 13.0844 3.53284 11.9716 2.46212C10.8517 1.38153 9.31335 0.473633 7.39218 0.473633ZM3.96824 5.99995C3.96824 5.05773 4.32897 4.15411 4.97108 3.48786C5.61319 2.82161 6.48407 2.44732 7.39218 2.44732C8.30024 2.44732 9.1711 2.82161 9.81321 3.48786C10.4553 4.15411 10.8161 5.05773 10.8161 5.99995C10.8161 6.94214 10.4553 7.8458 9.81321 8.51205C9.1711 9.17831 8.30024 9.55258 7.39218 9.55258C6.48407 9.55258 5.61319 9.17831 4.97108 8.51205C4.32897 7.8458 3.96824 6.94214 3.96824 5.99995ZM7.39218 4.421C7.39218 5.29189 6.70977 5.99995 5.87041 5.99995C5.7016 5.99995 5.53991 5.97034 5.38774 5.91853C5.25696 5.87413 5.10479 5.95801 5.10954 6.1011C5.11668 6.27133 5.14045 6.44155 5.18563 6.61182C5.51138 7.87498 6.76444 8.62492 7.98183 8.28696C9.19922 7.94894 9.92204 6.64877 9.59627 5.38564C9.3324 4.36179 8.45977 3.67347 7.48964 3.63153C7.35171 3.62659 7.27087 3.78202 7.31366 3.92018C7.36364 4.07807 7.39218 4.24584 7.39218 4.421Z" fill="#0A6ED1"/>
</g>
<defs>
<clipPath id="clip0_539_4026">
<rect width="14" height="12" fill="white" transform="translate(0.296875)"/>
</clipPath>
</defs>
</svg>
