<svg width="14" height="17" viewBox="0 0 14 17" fill="none" xmlns="http://www.w3.org/2000/svg">
<g clip-path="url(#clip0_539_4410)">
<path d="M11.3809 3.1188C10.6184 2.3563 9.38086 2.3563 8.61836 3.1188L2.86836 8.8688C1.55273 10.1844 1.55273 12.3157 2.86836 13.6313C4.18398 14.9469 6.31523 14.9469 7.63086 13.6313L12.3809 8.8813C12.7215 8.54067 13.2777 8.54067 13.6184 8.8813C13.959 9.22192 13.959 9.77817 13.6184 10.1188L8.86836 14.8688C6.86836 16.8688 3.63086 16.8688 1.63086 14.8688C-0.369141 12.8688 -0.369141 9.6313 1.63086 7.6313L7.38086 1.8813C8.82773 0.434424 11.1715 0.434424 12.6184 1.8813C14.0652 3.32817 14.0652 5.67192 12.6184 7.1188L7.11836 12.6188C6.22461 13.5125 4.77461 13.5125 3.88086 12.6188C2.98711 11.725 2.98711 10.275 3.88086 9.3813L8.38086 4.8813C8.72148 4.54067 9.27773 4.54067 9.61836 4.8813C9.95898 5.22192 9.95898 5.77817 9.61836 6.1188L5.11836 10.6188C4.90898 10.8282 4.90898 11.1719 5.11836 11.3813C5.32773 11.5907 5.67148 11.5907 5.88086 11.3813L11.3809 5.8813C12.1434 5.1188 12.1434 3.8813 11.3809 3.1188Z" fill="#9CA3AF"/>
</g>
<defs>
<clipPath id="clip0_539_4410">
<path d="M0 0.5H14V16.5H0V0.5Z" fill="white"/>
</clipPath>
</defs>
</svg>
