<svg width="14" height="17" viewBox="0 0 14 17" fill="none" xmlns="http://www.w3.org/2000/svg">
<g clip-path="url(#clip0_539_4334)">
<path d="M7 8.5C8.06087 8.5 9.07828 8.07857 9.82843 7.32843C10.5786 6.57828 11 5.56087 11 4.5C11 3.43913 10.5786 2.42172 9.82843 1.67157C9.07828 0.921427 8.06087 0.5 7 0.5C5.93913 0.5 4.92172 0.921427 4.17157 1.67157C3.42143 2.42172 3 3.43913 3 4.5C3 5.56087 3.42143 6.57828 4.17157 7.32843C4.92172 8.07857 5.93913 8.5 7 8.5ZM5.57188 10C2.49375 10 0 12.4937 0 15.5719C0 16.0844 0.415625 16.5 0.928125 16.5H13.0719C13.5844 16.5 14 16.0844 14 15.5719C14 12.4937 11.5063 10 8.42813 10H5.57188Z" fill="#9CA3AF"/>
</g>
<defs>
<clipPath id="clip0_539_4334">
<path d="M0 0.5H14V16.5H0V0.5Z" fill="white"/>
</clipPath>
</defs>
</svg>
