<svg width="21" height="21" viewBox="0 0 21 21" fill="none" xmlns="http://www.w3.org/2000/svg">
<g clip-path="url(#clip0_539_3924)">
<path d="M9.42188 3C8.90234 3 8.48438 3.41797 8.48438 3.9375C8.48438 4.45703 8.90234 4.875 9.42188 4.875H10.0469V6.17578C5.65625 6.64062 2.23438 10.3594 2.23438 14.875H19.7344C19.7344 10.3594 16.3125 6.64062 11.9219 6.17578V4.875H12.5469C13.0664 4.875 13.4844 4.45703 13.4844 3.9375C13.4844 3.41797 13.0664 3 12.5469 3H10.9844H9.42188ZM1.92188 16.125C1.40234 16.125 0.984375 16.543 0.984375 17.0625C0.984375 17.582 1.40234 18 1.92188 18H20.0469C20.5664 18 20.9844 17.582 20.9844 17.0625C20.9844 16.543 20.5664 16.125 20.0469 16.125H1.92188Z" fill="#0A6ED1"/>
</g>
<defs>
<clipPath id="clip0_539_3924">
<path d="M0.984375 0.5H20.9844V20.5H0.984375V0.5Z" fill="white"/>
</clipPath>
</defs>
</svg>
