<svg width="26" height="21" viewBox="0 0 26 21" fill="none" xmlns="http://www.w3.org/2000/svg">
<g clip-path="url(#clip0_539_3882)">
<path d="M1.90625 1.75C2.59766 1.75 3.15625 2.30859 3.15625 3V13H11.9062V6.75C11.9062 6.05859 12.4648 5.5 13.1562 5.5H21.9062C23.9766 5.5 25.6562 7.17969 25.6562 9.25V18C25.6562 18.6914 25.0977 19.25 24.4062 19.25C23.7148 19.25 23.1562 18.6914 23.1562 18V16.75H14.4062H13.1562H3.15625V18C3.15625 18.6914 2.59766 19.25 1.90625 19.25C1.21484 19.25 0.65625 18.6914 0.65625 18V3C0.65625 2.30859 1.21484 1.75 1.90625 1.75ZM7.53125 5.5C8.36005 5.5 9.15491 5.82924 9.74096 6.41529C10.327 7.00134 10.6562 7.7962 10.6562 8.625C10.6562 9.4538 10.327 10.2487 9.74096 10.8347C9.15491 11.4208 8.36005 11.75 7.53125 11.75C6.70245 11.75 5.90759 11.4208 5.32154 10.8347C4.73549 10.2487 4.40625 9.4538 4.40625 8.625C4.40625 7.7962 4.73549 7.00134 5.32154 6.41529C5.90759 5.82924 6.70245 5.5 7.53125 5.5Z" fill="#0A6ED1"/>
</g>
<defs>
<clipPath id="clip0_539_3882">
<path d="M0.65625 0.5H25.6562V20.5H0.65625V0.5Z" fill="white"/>
</clipPath>
</defs>
</svg>
