<svg width="21" height="21" viewBox="0 0 21 21" fill="none" xmlns="http://www.w3.org/2000/svg">
<g clip-path="url(#clip0_539_3903)">
<path d="M14.0781 13C17.5312 13 20.3281 10.2031 20.3281 6.75C20.3281 6.15234 20.2422 5.57422 20.0859 5.02344C19.9648 4.60156 19.4453 4.50781 19.1367 4.81641L16.1367 7.81641C16.0195 7.93359 15.8594 8 15.6953 8H13.4531C13.1094 8 12.8281 7.71875 12.8281 7.375V5.13281C12.8281 4.96875 12.8945 4.80859 13.0117 4.69141L16.0117 1.69141C16.3203 1.38281 16.2227 0.863281 15.8047 0.742188C15.2539 0.585937 14.6758 0.5 14.0781 0.5C10.625 0.5 7.82812 3.29688 7.82812 6.75C7.82812 7.49609 7.96094 8.21484 8.19922 8.87891L1.10547 15.9727C0.609375 16.4688 0.328125 17.1445 0.328125 17.8477C0.328125 19.3125 1.51562 20.5 2.98047 20.5C3.68359 20.5 4.35938 20.2188 4.85547 19.7227L11.9492 12.6289C12.6133 12.8711 13.332 13 14.0781 13ZM3.45312 16.4375C3.70177 16.4375 3.94022 16.5363 4.11604 16.7121C4.29185 16.8879 4.39062 17.1264 4.39062 17.375C4.39062 17.6236 4.29185 17.8621 4.11604 18.0379C3.94022 18.2137 3.70177 18.3125 3.45312 18.3125C3.20448 18.3125 2.96603 18.2137 2.79021 18.0379C2.6144 17.8621 2.51562 17.6236 2.51562 17.375C2.51562 17.1264 2.6144 16.8879 2.79021 16.7121C2.96603 16.5363 3.20448 16.4375 3.45312 16.4375Z" fill="#0A6ED1"/>
</g>
<defs>
<clipPath id="clip0_539_3903">
<path d="M0.328125 0.5H20.3281V20.5H0.328125V0.5Z" fill="white"/>
</clipPath>
</defs>
</svg>
