<svg width="14" height="15" viewBox="0 0 14 15" fill="none" xmlns="http://www.w3.org/2000/svg">
<path d="M13.0469 14.75H0.796875V0.75H13.0469V14.75Z" stroke="#E5E7EB"/>
<path d="M1.01562 7.75C1.01562 7.34389 1.17695 6.95441 1.46412 6.66724C1.75128 6.38008 2.14076 6.21875 2.54688 6.21875C2.95299 6.21875 3.34247 6.38008 3.62963 6.66724C3.9168 6.95441 4.07812 7.34389 4.07812 7.75C4.07812 8.15611 3.9168 8.54559 3.62963 8.83276C3.34247 9.11992 2.95299 9.28125 2.54688 9.28125C2.14076 9.28125 1.75128 9.11992 1.46412 8.83276C1.17695 8.54559 1.01563 8.15611 1.01562 7.75ZM5.39062 7.75C5.39062 7.34389 5.55195 6.95441 5.83912 6.66724C6.12628 6.38008 6.51576 6.21875 6.92188 6.21875C7.32799 6.21875 7.71747 6.38008 8.00463 6.66724C8.2918 6.95441 8.45312 7.34389 8.45312 7.75C8.45312 8.15611 8.2918 8.54559 8.00463 8.83276C7.71747 9.11992 7.32799 9.28125 6.92188 9.28125C6.51576 9.28125 6.12628 9.11992 5.83912 8.83276C5.55195 8.54559 5.39062 8.15611 5.39062 7.75ZM11.2969 6.21875C11.703 6.21875 12.0925 6.38008 12.3796 6.66724C12.6668 6.95441 12.8281 7.34389 12.8281 7.75C12.8281 8.15611 12.6668 8.54559 12.3796 8.83276C12.0925 9.11992 11.703 9.28125 11.2969 9.28125C10.8908 9.28125 10.5013 9.11992 10.2141 8.83276C9.92695 8.54559 9.76562 8.15611 9.76562 7.75C9.76562 7.34389 9.92695 6.95441 10.2141 6.66724C10.5013 6.38008 10.8908 6.21875 11.2969 6.21875Z" fill="#9CA3AF"/>
</svg>
