<svg width="20" height="17" viewBox="0 0 20 17" fill="none" xmlns="http://www.w3.org/2000/svg">
<path d="M20 16.5H0V0.5H20V16.5Z" stroke="#E5E7EB"/>
<path d="M1 1.5C1.55313 1.5 2 1.94687 2 2.5V10.5H9V5.5C9 4.94688 9.44687 4.5 10 4.5H17C18.6562 4.5 20 5.84375 20 7.5V14.5C20 15.0531 19.5531 15.5 19 15.5C18.4469 15.5 18 15.0531 18 14.5V13.5H11H10H2V14.5C2 15.0531 1.55313 15.5 1 15.5C0.446875 15.5 0 15.0531 0 14.5V2.5C0 1.94687 0.446875 1.5 1 1.5ZM5.5 4.5C6.16304 4.5 6.79893 4.76339 7.26777 5.23223C7.73661 5.70107 8 6.33696 8 7C8 7.66304 7.73661 8.29893 7.26777 8.76777C6.79893 9.23661 6.16304 9.5 5.5 9.5C4.83696 9.5 4.20107 9.23661 3.73223 8.76777C3.26339 8.29893 3 7.66304 3 7C3 6.33696 3.26339 5.70107 3.73223 5.23223C4.20107 4.76339 4.83696 4.5 5.5 4.5Z" fill="#9CA3AF"/>
</svg>
